<svg width="458" height="387" viewBox="0 0 458 387" fill="none" xmlns="http://www.w3.org/2000/svg">
<path d="M67.9158 370.71L76.8011 373.196L90.612 340.083L77.4983 336.415L67.9158 370.71Z" fill="#FFB8B8"/>
<path d="M91.6312 386.247L63.7049 378.434L66.7215 367.637L84.938 372.733C87.5132 373.454 89.6969 375.169 91.0088 377.5C92.3206 379.832 92.6531 382.589 91.9332 385.166L91.6312 386.247Z" fill="#2F2E41"/>
<path d="M173.908 377.673L183.135 377.673L187.522 342.062L173.905 342.062L173.908 377.673Z" fill="#FFB8B8"/>
<path d="M200.929 386.244L171.932 386.247L171.931 375.036L190.846 375.034C192.17 375.034 193.481 375.295 194.705 375.802C195.928 376.309 197.039 377.052 197.976 377.988C198.912 378.925 199.655 380.037 200.162 381.261C200.668 382.485 200.929 383.797 200.929 385.122L200.929 386.244Z" fill="#2F2E41"/>
<path d="M105.346 229.829L84.1096 281.887L170.825 301.381L171.931 272.255L132.555 230.287L105.346 229.829Z" fill="#B3B3B3"/>
<path d="M152.395 148.732C162.001 143.477 165.531 131.425 160.28 121.813C155.029 112.201 142.985 108.668 133.379 113.923C123.773 119.177 120.243 131.229 125.494 140.841C130.745 150.453 142.789 153.986 152.395 148.732Z" fill="#FFB8B8"/>
<path d="M157.05 226.948L117.799 210.87L114.305 187.812C113.276 181.072 114.883 174.194 118.792 168.61C122.701 163.025 128.611 159.164 135.292 157.828L140.484 156.785C144.749 155.931 149.158 156.131 153.328 157.369C157.498 158.606 161.303 160.844 164.413 163.887C167.459 166.799 169.737 170.421 171.043 174.429C172.349 178.437 172.643 182.707 171.899 186.856C171.312 190.411 169.871 193.771 167.7 196.646C155.369 212.781 156.952 226.194 156.97 226.328L157.05 226.948Z" fill="#0FA9EA"/>
<path d="M173.033 287.081L153.362 255.776L159.557 198.832L150.999 156.243L151.454 156.254C156.432 156.377 161.172 158.411 164.692 161.935C168.212 165.459 170.243 170.203 170.364 175.185L178.69 216.918L173.033 287.081Z" fill="#2F2E41"/>
<path d="M173.482 370.941C172.653 370.941 171.85 370.653 171.208 370.127C170.567 369.601 170.127 368.869 169.964 368.056L161.346 325.174C159.772 317.317 156.808 309.805 152.593 302.992L128.276 263.629C128.155 263.433 127.982 263.275 127.777 263.171C127.572 263.067 127.342 263.021 127.112 263.04C126.883 263.058 126.663 263.139 126.477 263.275C126.291 263.41 126.146 263.594 126.057 263.807L86.0776 359.911C85.7562 360.68 85.1787 361.313 84.4434 361.703C83.708 362.093 82.8603 362.216 82.0445 362.051L71.3644 359.872C70.4495 359.69 69.6421 359.156 69.1147 358.386C68.5872 357.616 68.3814 356.67 68.5412 355.75L77.2537 304.37C79.031 293.897 82.0593 283.676 86.2735 273.927L115.78 205.689L159.324 219.999L162.197 250.51L182.317 299.26C183.708 302.627 184.539 306.198 184.777 309.833L188.494 366.175C188.552 367.115 188.24 368.041 187.626 368.755C187.011 369.468 186.142 369.913 185.204 369.994L173.778 370.929C173.679 370.937 173.58 370.941 173.482 370.941Z" fill="#2F2E41"/>
<path d="M94.0467 301.042L80.242 287.93L106.331 187.261C107.986 180.932 111.09 175.074 115.396 170.151C119.702 165.228 125.094 161.375 131.144 158.895L131.656 158.686L130.262 219.956L94.0467 301.042Z" fill="#2F2E41"/>
<path d="M138.268 151.091C133.37 146.85 131.881 138.937 134.882 133.104C137.882 127.271 145.057 124.13 151.192 125.965C156.971 127.693 163.539 121.929 162.835 115.748C162.131 109.567 154.448 105.54 149.216 108.611C145.254 107.02 140.917 106.608 136.726 107.425C132.536 108.241 128.67 110.252 125.594 113.215C119.448 119.24 117.116 129.09 119.876 137.373C122.635 145.656 130.337 151.927 138.268 151.091Z" fill="#2F2E41"/>
<path d="M120.927 312.299C120.686 312.392 120.434 312.457 120.177 312.492L88.6601 316.895C87.8977 317.004 87.1208 316.85 86.4573 316.459C85.7937 316.068 85.2831 315.462 85.0093 314.742L57.8807 244.104C57.705 243.647 57.63 243.157 57.6606 242.668C57.6912 242.179 57.8268 241.702 58.0581 241.271C58.2895 240.839 58.6111 240.462 59.0012 240.166C59.3912 239.87 59.8405 239.661 60.3183 239.554L60.3185 239.554L89.9568 232.936C90.1856 232.885 90.4067 232.804 90.6146 232.695L119.442 217.613C119.665 217.496 119.9 217.405 120.143 217.34L151.868 208.877C152.68 208.659 153.545 208.75 154.294 209.132C155.044 209.515 155.625 210.162 155.925 210.948L179.579 272.54C179.787 273.076 179.855 273.657 179.777 274.227C179.699 274.797 179.477 275.338 179.132 275.798L170.951 286.791C170.566 287.309 170.043 287.706 169.441 287.937L151.563 294.812C151.435 294.861 151.311 294.921 151.191 294.989L121.4 312.074C121.249 312.161 121.091 312.236 120.927 312.299Z" fill="white"/>
<path d="M135.591 218.294L131.562 219.369L120.886 222.218L120.867 222.222L106.251 229.87L100.827 232.708L100.824 232.709L92.6776 236.971L92.4542 237.022L83.9912 238.91L79.9011 239.825L63.2189 243.55L89.4079 311.741L106.599 309.341L110.814 308.751L119.798 307.495L119.902 307.481L148.771 290.924L166.336 284.17L174.356 273.394L151.559 214.034L135.591 218.294Z" fill="#E6E6E6"/>
<path d="M155.314 223.814L68.466 257.213L69.9533 261.085L156.802 227.687L155.314 223.814Z" fill="white"/>
<path d="M160.272 236.723L73.4236 270.121L74.9109 273.994L161.759 240.595L160.272 236.723Z" fill="white"/>
<path d="M170.286 262.798L83.4379 296.197L84.9252 300.069L171.774 266.671L170.286 262.798Z" fill="white"/>
<path d="M135.59 218.293L161.591 285.994L157.722 287.482L131.562 219.369L135.59 218.293Z" fill="white"/>
<path d="M106.251 229.87L100.912 244.735L99.0608 249.892L94.7424 261.923L93.8171 264.495L92.8911 267.079L91.6717 270.473L82.9193 294.847L80.6438 288.921L87.7803 269.045L89.3948 264.545L89.6315 263.888L91.5409 258.568L93.95 251.857L95.8013 246.7L100.824 232.709L100.826 232.709L106.251 229.87Z" fill="white"/>
<path opacity="0.1" d="M149.401 290.682L148.771 290.924L119.902 307.481L119.798 307.495L92.4539 237.021L92.6776 236.971L100.824 232.709L100.826 232.709L106.251 229.87L120.867 222.222L120.886 222.218L149.401 290.682Z" fill="black"/>
<path d="M121.058 312.638C120.79 312.741 120.511 312.813 120.227 312.853L88.7103 317.255C87.8666 317.376 87.0069 317.206 86.2727 316.773C85.5384 316.339 84.9733 315.669 84.6703 314.872L57.5417 244.235C57.3474 243.728 57.2643 243.186 57.2982 242.645C57.3321 242.104 57.4822 241.577 57.7382 241.099C57.9942 240.621 58.3501 240.204 58.7817 239.876C59.2133 239.549 59.7105 239.318 60.2393 239.2L89.8776 232.581C90.0754 232.537 90.2666 232.467 90.4464 232.373L119.274 217.291C119.52 217.162 119.78 217.061 120.049 216.989L151.774 208.526C152.673 208.284 153.63 208.385 154.459 208.808C155.289 209.232 155.932 209.947 156.264 210.818L179.918 272.409C180.148 273.003 180.223 273.646 180.137 274.276C180.05 274.907 179.805 275.506 179.423 276.015L171.243 287.008C170.817 287.581 170.237 288.02 169.571 288.276L151.693 295.151C151.582 295.194 151.475 295.245 151.372 295.304L121.581 312.389C121.413 312.486 121.238 312.569 121.058 312.638ZM60.2286 240.717C59.6552 240.938 59.1929 241.378 58.9433 241.939C58.6937 242.501 58.6773 243.139 58.8976 243.713L86.0262 314.351C86.2124 314.841 86.5598 315.253 87.0111 315.519C87.4625 315.785 87.9909 315.89 88.5096 315.815L120.027 311.413C120.319 311.372 120.602 311.275 120.859 311.128L150.65 294.043C150.817 293.947 150.992 293.864 151.172 293.795L169.05 286.919C169.46 286.762 169.816 286.492 170.078 286.14L178.258 275.147C178.493 274.834 178.644 274.466 178.697 274.078C178.75 273.691 178.704 273.296 178.563 272.931L154.908 211.339C154.704 210.804 154.309 210.364 153.799 210.104C153.289 209.844 152.701 209.782 152.149 209.93L120.424 218.393C120.259 218.438 120.099 218.5 119.947 218.579L91.1194 233.661C90.8269 233.814 90.516 233.927 90.1943 234L60.5558 240.618C60.4444 240.643 60.3351 240.676 60.2286 240.717Z" fill="#E6E6E6"/>
<path d="M83.9913 238.91L110.813 308.751L106.599 309.341L79.9008 239.825L83.9913 238.91Z" fill="white"/>
<path d="M91.7056 267.101C92.7742 267.101 93.6404 266.234 93.6404 265.165C93.6404 264.096 92.7742 263.229 91.7056 263.229C90.637 263.229 89.7708 264.096 89.7708 265.165C89.7708 266.234 90.637 267.101 91.7056 267.101Z" fill="#3F3D56"/>
<path d="M160.306 269.165C161.375 269.165 162.241 268.298 162.241 267.229C162.241 266.159 161.375 265.293 160.306 265.293C159.238 265.293 158.372 266.159 158.372 267.229C158.372 268.298 159.238 269.165 160.306 269.165Z" fill="#0FA9EA"/>
<path d="M161.09 232.26C163.286 237.978 160.643 256.926 159.714 263.008C159.684 263.201 159.605 263.382 159.482 263.534C159.36 263.687 159.2 263.803 159.018 263.873C158.836 263.943 158.639 263.964 158.446 263.933C158.254 263.902 158.073 263.821 157.922 263.697C153.161 259.803 138.518 247.502 136.322 241.785C135.697 240.157 135.398 238.423 135.443 236.68C135.488 234.937 135.875 233.22 136.583 231.627C137.292 230.034 138.306 228.597 139.569 227.396C140.833 226.195 142.32 225.256 143.946 224.63C145.573 224.005 147.306 223.706 149.048 223.751C150.79 223.796 152.505 224.184 154.097 224.892C155.689 225.601 157.126 226.616 158.326 227.88C159.526 229.144 160.465 230.633 161.09 232.26V232.26Z" fill="#0FA9EA"/>
<path d="M148.706 244.214C152.675 244.214 155.892 240.994 155.892 237.022C155.892 233.051 152.675 229.831 148.706 229.831C144.737 229.831 141.519 233.051 141.519 237.022C141.519 240.994 144.737 244.214 148.706 244.214Z" fill="white"/>
<path d="M139.475 221.506C139.766 220.438 140.287 219.447 141.002 218.602C141.717 217.757 142.609 217.08 143.614 216.617C144.619 216.154 145.713 215.918 146.82 215.924C147.926 215.931 149.017 216.18 150.017 216.654L162.846 205.049L171.795 211.13L153.448 227.264C152.541 228.891 151.068 230.13 149.309 230.744C147.551 231.358 145.628 231.305 143.906 230.595C142.183 229.886 140.781 228.568 139.964 226.893C139.148 225.218 138.973 223.301 139.475 221.506Z" fill="#FFB8B8"/>
<path d="M160.146 225.294L150.089 211.637L173.015 196.955L156.584 173.492C155.241 171.575 154.652 169.229 154.93 166.905C155.208 164.581 156.334 162.441 158.091 160.895C159.847 159.349 162.112 158.507 164.452 158.528C166.791 158.55 169.04 159.434 170.768 161.012L191.343 179.796C193.302 181.585 194.823 183.803 195.786 186.277C196.749 188.75 197.128 191.413 196.894 194.057C196.66 196.702 195.819 199.256 194.437 201.522C193.054 203.788 191.168 205.704 188.924 207.12L160.146 225.294Z" fill="#2F2E41"/>
<path d="M81.3583 261.126C82.2673 260.495 83.0271 259.672 83.584 258.715C84.1409 257.759 84.4815 256.692 84.5817 255.589C84.6818 254.487 84.5392 253.375 84.1638 252.334C83.7885 251.293 83.1895 250.346 82.409 249.561L89.0566 233.586L80.3401 227.176L71.2691 249.868C70.0386 251.268 69.3638 253.07 69.3726 254.934C69.3813 256.798 70.0731 258.594 71.3167 259.981C72.5603 261.369 74.2694 262.252 76.1202 262.463C77.9709 262.674 79.8347 262.198 81.3583 261.126V261.126Z" fill="#FFB8B8"/>
<path d="M85.8498 244.905L70.1285 241.241L81.844 207.436C83.8629 201.603 86.8413 196.149 90.6564 191.298L109.769 166.977C111.517 164.753 114.075 163.312 116.882 162.971C119.69 162.63 122.518 163.416 124.747 165.157C126.977 166.898 128.425 169.453 128.776 172.261C129.127 175.069 128.351 177.901 126.619 180.138L105.411 207.529L85.8498 244.905Z" fill="#2F2E41"/>
<path d="M277.439 387H0.726279C0.533658 387 0.348914 386.923 0.212711 386.787C0.0765068 386.651 0 386.466 0 386.273C0 386.081 0.0765068 385.896 0.212711 385.759C0.348914 385.623 0.533658 385.547 0.726279 385.547H277.439C277.631 385.547 277.816 385.623 277.952 385.759C278.088 385.896 278.165 386.081 278.165 386.273C278.165 386.466 278.088 386.651 277.952 386.787C277.816 386.923 277.631 387 277.439 387Z" fill="#CCCCCC"/>
<path d="M384.773 386.637H378.237V3.27042C378.237 2.40305 378.581 1.57121 379.194 0.957888C379.807 0.344564 380.638 0 381.505 0C382.372 0 383.203 0.344564 383.816 0.957888C384.429 1.57121 384.773 2.40305 384.773 3.27042V386.637Z" fill="#E6E6E6"/>
<path d="M432.136 387H330.457C330.264 387 330.08 386.923 329.943 386.787C329.807 386.651 329.731 386.466 329.731 386.273C329.731 386.081 329.807 385.896 329.943 385.759C330.08 385.623 330.264 385.547 330.457 385.547H432.136C432.329 385.547 432.513 385.623 432.65 385.759C432.786 385.896 432.862 386.081 432.862 386.273C432.862 386.466 432.786 386.651 432.65 386.787C432.513 386.923 432.329 387 432.136 387Z" fill="#CCCCCC"/>
<path d="M430.13 50.1465H335.023C334.157 50.1455 333.326 49.8006 332.713 49.1875C332.101 48.5744 331.756 47.7431 331.755 46.876V19.2591C331.756 18.3921 332.101 17.5608 332.713 16.9477C333.326 16.3346 334.157 15.9897 335.023 15.9887H430.136C430.694 15.9891 431.242 16.1319 431.729 16.4035L456.324 30.1385C456.831 30.4216 457.254 30.8347 457.548 31.3354C457.843 31.836 457.999 32.4061 458 32.9871C458.001 33.568 457.848 34.1388 457.556 34.6407C457.263 35.1427 456.843 35.5577 456.337 35.843L431.735 49.7249C431.245 50.0009 430.692 50.1461 430.13 50.1465Z" fill="#0FA9EA"/>
<path d="M421.451 109.741H326.344C325.782 109.741 325.229 109.595 324.739 109.319L300.137 95.4374C299.631 95.1521 299.211 94.7371 298.918 94.2352C298.626 93.7332 298.473 93.1624 298.474 92.5815C298.475 92.0006 298.631 91.4304 298.926 90.9298C299.22 90.4291 299.643 90.016 300.15 89.733L324.745 75.998C325.232 75.7263 325.78 75.5835 326.337 75.5831H421.451C422.317 75.5841 423.148 75.929 423.76 76.5421C424.373 77.1552 424.718 77.9865 424.719 78.8536V106.47C424.718 107.338 424.373 108.169 423.76 108.782C423.148 109.395 422.317 109.74 421.451 109.741Z" fill="#E6E6E6"/>
<path d="M421.814 168.245H326.707C326.145 168.245 325.592 168.1 325.102 167.824L300.5 153.942C299.994 153.656 299.574 153.241 299.281 152.739C298.989 152.237 298.836 151.667 298.837 151.086C298.838 150.505 298.994 149.935 299.289 149.434C299.583 148.933 300.006 148.52 300.513 148.237L325.108 134.502C325.595 134.231 326.143 134.088 326.701 134.087H421.814C422.68 134.088 423.511 134.433 424.124 135.046C424.736 135.659 425.081 136.491 425.082 137.358V164.975C425.081 165.842 424.736 166.673 424.124 167.286C423.511 167.899 422.68 168.244 421.814 168.245Z" fill="#E6E6E6"/>
</svg>
