<svg width="327" height="332" viewBox="0 0 327 332" fill="none" xmlns="http://www.w3.org/2000/svg">
<g clip-path="url(#clip0)">
<path d="M201.355 305.246L196.71 302.281C196.497 299.677 196.43 297.063 196.51 294.452L198.92 295.069L196.542 293.551C196.673 290.323 196.964 288.194 196.964 288.194C196.964 288.194 206.356 294.308 212.345 302.595L211.324 309.604L213.76 304.702C214.383 305.702 214.943 306.74 215.436 307.81C220.371 318.615 220.85 328.99 216.507 330.982C212.163 332.975 204.642 325.831 199.706 315.026C198.218 311.551 197.27 307.867 196.895 304.104L201.355 305.246Z" fill="#E6E6E6"/>
<path d="M191.814 315.676L186.308 315.544C184.782 313.425 183.377 311.222 182.099 308.945L184.48 308.225L181.661 308.158C180.109 305.326 179.26 303.353 179.26 303.353C179.26 303.353 190.453 303.721 199.854 307.713L202.595 314.242L202.152 308.784C203.201 309.317 204.216 309.915 205.189 310.576C214.987 317.269 220.748 325.902 218.058 329.858C215.367 333.814 205.244 331.595 195.446 324.902C192.38 322.698 189.668 320.036 187.406 317.009L191.814 315.676Z" fill="#E6E6E6"/>
<path d="M224.355 325.421L218.344 325.42L216.089 301.987L224.356 302.183L224.355 325.421Z" fill="#A0616A"/>
<path d="M225.888 331.26L206.506 331.26V331.014C206.506 329.009 207.301 327.086 208.716 325.668C210.13 324.25 212.049 323.453 214.05 323.453H214.05L225.888 323.454L225.888 331.26Z" fill="#2F2E41"/>
<path d="M295.272 308.03L291.329 312.578L271.951 299.501L277.77 292.789L295.272 308.03Z" fill="#A0616A"/>
<path d="M300.675 310.7L287.963 325.364L287.778 325.202C286.267 323.887 285.34 322.025 285.2 320.024C285.06 318.024 285.719 316.05 287.031 314.536L287.031 314.536L294.795 305.58L300.675 310.7Z" fill="#2F2E41"/>
<path d="M326.416 332H162.511C162.356 332 162.207 331.938 162.098 331.829C161.988 331.719 161.927 331.57 161.927 331.415C161.927 331.26 161.988 331.111 162.098 331.001C162.207 330.891 162.356 330.83 162.511 330.83H326.416C326.571 330.83 326.72 330.891 326.829 331.001C326.939 331.111 327 331.26 327 331.415C327 331.57 326.939 331.719 326.829 331.829C326.72 331.938 326.571 332 326.416 332Z" fill="#CACACA"/>
<path d="M237.562 270.262L224.914 317.221H215.108L217.262 265.863L222.947 215.826L243.597 214.726L237.562 270.262Z" fill="#2F2E41"/>
<path d="M259.507 215.826C259.507 215.826 260.604 222.974 256.215 230.672C251.826 238.37 254.569 264.213 254.569 264.213L291.596 301.496C291.596 301.496 285.842 311.501 283.098 310.951C280.355 310.401 237.013 275.211 237.013 275.211L222.947 218.025L259.507 215.826Z" fill="#2F2E41"/>
<path d="M239.091 132.587C246.06 132.587 251.71 126.925 251.71 119.941C251.71 112.956 246.06 107.294 239.091 107.294C232.122 107.294 226.473 112.956 226.473 119.941C226.473 126.925 232.122 132.587 239.091 132.587Z" fill="#A0616A"/>
<path d="M239.623 139.826C239.623 139.826 254.332 134.246 254.332 135.895C254.332 137.545 268.833 151.493 265.542 169.638C262.25 187.783 258.409 196.581 260.055 206.478C261.701 216.376 260.604 218.575 260.604 218.575C260.604 218.575 222.398 221.874 221.85 218.025C221.301 214.176 223.443 208.306 223.443 206.656C223.443 205.007 238.603 144.071 239.623 139.826Z" fill="#0FA9EA"/>
<path opacity="0.2" d="M256.198 193.904L241.677 217.751H246.614L256.198 193.904Z" fill="black"/>
<path d="M244.803 127.54C243.781 126.999 242.594 126.887 241.489 126.551C237.533 125.347 234.883 120.865 235.729 116.809C235.885 116.289 235.955 115.746 235.937 115.204C235.789 114.002 234.562 113.227 233.386 112.952C232.21 112.677 230.959 112.717 229.835 112.274C228.1 111.591 226.947 109.803 226.697 107.952C226.517 106.077 226.934 104.193 227.887 102.57L228.312 103.795C228.96 103.245 229.441 102.524 229.7 101.714C230.183 101.796 230.636 102 231.018 102.307C231.399 102.615 231.696 103.015 231.878 103.47C232.56 103.873 232.659 102.218 233.412 101.974C233.743 101.933 234.078 102.016 234.352 102.207C235.869 102.916 237.633 102.31 239.26 101.916C242.079 101.239 245.018 101.235 247.838 101.906C249.712 102.354 251.567 103.134 252.908 104.52C253.957 105.714 254.762 107.101 255.28 108.605C256.718 112.232 257.668 116.157 257.193 120.031C256.798 123.202 255.474 126.184 253.39 128.601C252.304 129.855 248.761 134.229 246.819 133.484C244.378 132.546 247.679 129.064 244.803 127.54Z" fill="#2F2E41"/>
<path opacity="0.2" d="M223.396 237.24L222.667 237.519L237.104 275.457L237.834 275.178L223.396 237.24Z" fill="black"/>
<path d="M71.8278 226.759C70.0615 221.674 67.2097 217.036 63.4711 213.169C59.7326 209.301 55.1974 206.298 50.1817 204.368C45.1659 202.438 39.7905 201.627 34.4302 201.993C29.0699 202.359 23.8538 203.893 19.1455 206.487C14.4373 209.08 10.3502 212.672 7.16946 217.012C3.98867 221.352 1.79067 226.334 0.728748 231.613C-0.333177 236.891 -0.233471 242.339 1.02091 247.574C2.2753 252.81 4.65416 257.709 7.99162 261.929C8.32317 262.347 8.668 262.766 9.01962 263.171C9.04617 263.198 9.06592 263.225 9.09246 263.251C9.9568 264.249 10.8755 265.199 11.8442 266.096C12.0965 266.328 12.3616 266.567 12.6268 266.793C13.1306 267.245 13.648 267.677 14.1851 268.089C14.3972 268.255 14.6028 268.422 14.8217 268.581C15.6703 269.226 16.5523 269.824 17.4608 270.395L17.5006 270.415C17.759 270.575 18.0245 270.734 18.2897 270.887C18.7669 271.173 19.2578 271.445 19.7483 271.705L20.0601 271.864C20.7763 272.236 21.5057 272.588 22.255 272.914C22.4075 272.981 22.5732 273.047 22.7257 273.113C22.739 273.12 22.7455 273.12 22.7588 273.127C23.1104 273.273 23.4617 273.413 23.8198 273.545C24.996 273.996 26.1958 274.382 27.4137 274.702C30.5222 275.532 33.7255 275.952 36.9425 275.951C38.1162 275.951 39.2766 275.898 40.4237 275.785C43.0449 275.543 45.6325 275.019 48.1422 274.223C48.1487 274.223 48.1555 274.217 48.162 274.217C49.7474 273.71 51.2961 273.095 52.7972 272.376C52.8036 272.369 52.8169 272.369 52.8237 272.362C53.1617 272.203 53.4868 272.03 53.8184 271.864C53.8715 271.837 53.9242 271.811 53.9773 271.784C54.2425 271.645 54.508 271.505 54.7732 271.359C55.4363 270.993 56.0861 270.608 56.7291 270.196C56.9081 270.09 57.0807 269.977 57.2598 269.857C57.5117 269.691 57.7636 269.518 58.009 269.339C58.3337 269.113 58.6588 268.88 58.9771 268.641C59.0765 268.568 59.1827 268.495 59.2821 268.415C65.4944 263.689 70.0543 257.113 72.308 249.63C74.5618 242.147 74.3937 234.141 71.8278 226.759H71.8278Z" fill="white"/>
<path d="M56.0864 266.873C52.9448 265.214 49.6656 263.831 46.2856 262.739L45.8547 257.961L28.3756 256.074L26.1542 262.181L19.8813 264.54C19.6568 264.626 19.4432 264.737 19.2448 264.873H19.238C18.8879 265.11 18.5898 265.416 18.3617 265.773C18.1337 266.129 17.9806 266.528 17.9118 266.946C17.8448 267.362 17.8606 267.786 17.9584 268.196L18.29 269.558C18.7672 269.844 19.258 270.116 19.7486 270.375L20.0604 270.535C20.7766 270.907 21.506 271.259 22.2553 271.585C22.4077 271.651 22.5735 271.718 22.726 271.784C22.7393 271.791 22.7458 271.791 22.759 271.798C23.1107 271.944 23.462 272.083 23.8201 272.216C24.9963 272.666 26.1961 273.052 27.414 273.373C30.5225 274.203 33.7258 274.623 36.9428 274.622C38.1164 274.622 39.2769 274.569 40.424 274.456C43.0452 274.213 45.6328 273.69 48.1425 272.894C48.149 272.894 48.1558 272.887 48.1623 272.887C49.7477 272.381 51.2964 271.766 52.7975 271.047C52.8039 271.04 52.8172 271.04 52.824 271.033C53.162 270.874 53.4871 270.701 53.8186 270.535C53.8717 270.508 53.9245 270.482 53.9776 270.455C54.2428 270.316 54.5083 270.176 54.7735 270.03C55.4366 269.664 56.0864 269.279 56.7294 268.867C56.9084 268.76 57.081 268.647 57.2601 268.528C57.512 268.362 57.7639 268.189 58.0093 268.009C57.3925 267.611 56.7495 267.232 56.0864 266.873Z" fill="#E4E4E4"/>
<path d="M23.2832 269.817L22.1892 264.866H19.3312C19.3024 264.866 19.2736 264.869 19.2451 264.873H19.2383C18.2112 264.96 17.2221 265.302 16.3605 265.87C15.7762 266.243 15.2566 266.71 14.8223 267.252C15.6709 267.897 16.5529 268.495 17.4614 269.066L17.5012 269.086C17.7596 269.246 18.0251 269.405 18.2902 269.558C18.7675 269.844 19.2583 270.116 19.7489 270.375L20.0607 270.535C20.7769 270.907 21.5063 271.259 22.2555 271.585C22.408 271.651 22.5738 271.718 22.7263 271.784C22.7396 271.791 22.7461 271.791 22.7593 271.798C23.111 271.944 23.4623 272.083 23.8204 272.216L23.2832 269.817Z" fill="#E4E4E4"/>
<path d="M36.4294 253.053C43.3819 253.053 49.018 247.404 49.018 240.436C49.018 233.468 43.3819 227.82 36.4294 227.82C29.4769 227.82 23.8408 233.468 23.8408 240.436C23.8408 247.404 29.4769 253.053 36.4294 253.053Z" fill="white"/>
<path d="M36.4109 253.55C34.4182 253.547 32.4524 253.088 30.6638 252.208C28.8751 251.328 27.3107 250.049 26.0901 248.471C24.8694 246.892 24.0248 245.055 23.6206 243.099C23.2164 241.143 23.2633 239.121 23.7578 237.186C24.2523 235.252 25.1812 233.456 26.4738 231.936C27.7663 230.416 29.3883 229.212 31.2159 228.416C33.0434 227.62 35.0283 227.252 37.019 227.342C39.0097 227.432 40.9536 227.977 42.7024 228.934C45.2493 230.335 47.2589 232.545 48.4145 235.216C49.5701 237.887 49.8061 240.868 49.0852 243.689C48.3643 246.509 46.7276 249.009 44.4329 250.795C42.1382 252.58 39.316 253.55 36.4109 253.55ZM36.4494 228.313C33.5021 228.309 30.6549 229.384 28.4425 231.336C26.2301 233.287 24.8049 235.981 24.4346 238.912C24.0644 241.842 24.7744 244.807 26.4315 247.25C28.0886 249.693 30.5787 251.445 33.4339 252.178C36.2891 252.91 39.3129 252.573 41.9374 251.229C44.5619 249.885 46.6063 247.626 47.6867 244.878C48.7671 242.13 48.809 239.081 47.8046 236.304C46.8002 233.527 44.8186 231.213 42.2321 229.797C40.4583 228.826 38.4703 228.316 36.4494 228.313H36.4494Z" fill="#E4E4E4"/>
<path d="M27.977 234.291C29.2801 235.837 31.4855 236.273 33.5199 236.451C37.6514 236.815 43.6592 236.226 47.6968 235.291C47.985 238.091 47.1993 241.109 48.8444 243.412C49.6156 240.624 50.064 237.756 50.1808 234.866C50.3036 233.626 50.142 232.374 49.7084 231.206C49.2057 230.068 48.1096 229.102 46.8472 229.092C47.7851 228.378 48.8836 227.908 50.046 227.721L46.0488 225.708L47.0753 224.652L39.8386 224.208L41.9346 222.873C38.78 222.439 35.5885 222.338 32.4128 222.572C30.9382 222.681 29.3964 222.889 28.2015 223.745C27.0067 224.602 26.3163 226.304 27.058 227.561C26.1294 227.714 25.255 228.101 24.5178 228.688C23.7806 229.274 23.2049 230.039 22.8453 230.911C22.3906 232.296 22.2808 233.772 22.5256 235.21C22.7982 237.516 23.3331 239.784 24.1198 241.969L27.977 234.291Z" fill="#E4E4E4"/>
<path d="M71.8278 226.759C70.0615 221.674 67.2097 217.036 63.4711 213.169C59.7326 209.301 55.1974 206.298 50.1817 204.368C45.1659 202.438 39.7905 201.627 34.4302 201.993C29.0699 202.359 23.8538 203.893 19.1455 206.487C14.4373 209.08 10.3502 212.672 7.16946 217.012C3.98867 221.352 1.79067 226.334 0.728748 231.613C-0.333177 236.891 -0.233471 242.339 1.02091 247.574C2.2753 252.81 4.65416 257.709 7.99162 261.929C8.32317 262.347 8.668 262.766 9.01962 263.171C9.04617 263.198 9.06592 263.225 9.09246 263.251C9.9568 264.249 10.8755 265.199 11.8442 266.096C12.0965 266.328 12.3616 266.567 12.6268 266.793C13.1306 267.245 13.648 267.677 14.1851 268.089C14.3972 268.255 14.6028 268.422 14.8217 268.581C15.6703 269.226 16.5523 269.824 17.4608 270.395L17.5006 270.415C17.759 270.575 18.0245 270.734 18.2897 270.887C18.7669 271.173 19.2578 271.445 19.7483 271.705L20.0601 271.864C20.7763 272.236 21.5057 272.588 22.255 272.914C22.4075 272.981 22.5732 273.047 22.7257 273.113C22.739 273.12 22.7455 273.12 22.7588 273.127C23.1104 273.273 23.4617 273.413 23.8198 273.545C24.996 273.996 26.1958 274.382 27.4137 274.702C30.5222 275.532 33.7255 275.952 36.9425 275.951C38.1162 275.951 39.2766 275.898 40.4237 275.785C43.0449 275.543 45.6325 275.019 48.1422 274.223C48.1487 274.223 48.1555 274.217 48.162 274.217C49.7474 273.71 51.2961 273.095 52.7972 272.376C52.8036 272.369 52.8169 272.369 52.8237 272.362C53.1617 272.203 53.4868 272.03 53.8184 271.864C53.8715 271.837 53.9242 271.811 53.9773 271.784C54.2425 271.645 54.508 271.505 54.7732 271.359C55.4363 270.993 56.0861 270.608 56.7291 270.196C56.9081 270.09 57.0807 269.977 57.2598 269.857C57.5117 269.691 57.7636 269.518 58.009 269.339C58.3337 269.113 58.6588 268.88 58.9771 268.641C59.0765 268.568 59.1827 268.495 59.2821 268.415C65.4944 263.689 70.0543 257.113 72.308 249.63C74.5618 242.147 74.3937 234.141 71.8278 226.759H71.8278ZM58.0621 266.8C57.8432 266.973 57.6179 267.139 57.3922 267.292C57.1733 267.458 56.9548 267.617 56.7291 267.764C56.5368 267.903 56.3445 268.036 56.1456 268.162C56.1259 268.176 56.1058 268.189 56.0861 268.202C55.94 268.302 55.7943 268.395 55.6483 268.488C55.0979 268.834 54.5409 269.166 53.9773 269.485C53.9177 269.518 53.8578 269.551 53.7982 269.585C53.5463 269.724 53.2945 269.857 53.0426 269.99C53.0092 270.01 52.9694 270.023 52.9364 270.043L52.8965 270.063C52.5783 270.229 52.2532 270.389 51.9284 270.542C50.6746 271.147 49.3833 271.671 48.0625 272.11C47.89 272.17 47.7177 272.23 47.5455 272.283C45.17 273.04 42.7201 273.539 40.2382 273.771C39.1506 273.871 38.0498 273.924 36.9424 273.924C33.8997 273.931 30.8695 273.533 27.9311 272.741C26.423 272.347 24.945 271.845 23.5083 271.239C23.4351 271.206 23.3555 271.18 23.2826 271.146C23.2033 271.113 23.1301 271.086 23.0573 271.053C22.9776 271.02 22.9048 270.987 22.8251 270.947C22.2018 270.674 21.5851 270.375 20.9819 270.063L20.6901 269.91C19.9539 269.525 19.2312 269.113 18.5283 268.674C18.3227 268.548 18.1106 268.415 17.9115 268.275C17.8587 268.242 17.8121 268.209 17.759 268.176C17.2882 267.863 16.8174 267.538 16.3599 267.199C16.0485 266.966 15.7367 266.734 15.4317 266.494C14.9211 266.109 14.4302 265.697 13.953 265.271C13.7011 265.059 13.4557 264.826 13.217 264.607C12.2768 263.737 11.3868 262.814 10.5514 261.842C10.2729 261.523 10.001 261.204 9.74227 260.872C9.68347 260.806 9.62813 260.738 9.5765 260.666C5.26816 255.217 2.67674 248.606 2.13272 241.675C1.5887 234.744 3.11672 227.808 6.52194 221.751C9.92715 215.694 15.0552 210.791 21.2521 207.667C27.4491 204.543 34.434 203.34 41.3161 204.21C48.1983 205.081 54.6657 207.986 59.8936 212.556C65.1216 217.125 68.873 223.152 70.6696 229.867C72.4662 236.582 72.2265 243.681 69.9811 250.259C67.7356 256.837 63.5863 262.595 58.0621 266.8L58.0621 266.8Z" fill="#E4E4E4"/>
<path d="M71.8278 126.18C70.0615 121.095 67.2097 116.456 63.4711 112.589C59.7326 108.722 55.1974 105.718 50.1817 103.788C45.1659 101.858 39.7905 101.048 34.4302 101.414C29.0699 101.78 23.8538 103.313 19.1455 105.907C14.4373 108.501 10.3502 112.093 7.16946 116.433C3.98867 120.772 1.79067 125.755 0.728748 131.033C-0.333177 136.312 -0.233471 141.759 1.02091 146.995C2.2753 152.231 4.65416 157.129 7.99162 161.349C8.32317 161.768 8.668 162.187 9.01962 162.592C9.04617 162.618 9.06592 162.645 9.09246 162.672C9.9568 163.67 10.8755 164.619 11.8442 165.516C12.0965 165.749 12.3616 165.988 12.6268 166.214C13.1306 166.666 13.648 167.098 14.1851 167.51C14.3972 167.676 14.6028 167.842 14.8217 168.002C15.6703 168.646 16.5523 169.244 17.4608 169.816L17.5006 169.836C17.759 169.995 18.0245 170.155 18.2897 170.308C18.7669 170.593 19.2578 170.866 19.7483 171.125L20.0601 171.285C20.7763 171.657 21.5057 172.009 22.255 172.335C22.4075 172.401 22.5732 172.467 22.7257 172.534C22.739 172.541 22.7455 172.541 22.7588 172.547C23.1104 172.693 23.4617 172.833 23.8198 172.966C24.996 173.416 26.1958 173.802 27.4137 174.122C30.5222 174.953 33.7255 175.373 36.9425 175.372C38.1162 175.372 39.2766 175.318 40.4237 175.205C43.0449 174.963 45.6325 174.439 48.1422 173.644C48.1487 173.644 48.1555 173.637 48.162 173.637C49.7474 173.131 51.2961 172.516 52.7972 171.796C52.8036 171.79 52.8169 171.79 52.8237 171.783C53.1617 171.623 53.4868 171.451 53.8184 171.285C53.8715 171.258 53.9242 171.231 53.9773 171.205C54.2425 171.065 54.508 170.926 54.7732 170.779C55.4363 170.414 56.0861 170.028 56.7291 169.616C56.9081 169.51 57.0807 169.397 57.2598 169.277C57.5117 169.111 57.7636 168.939 58.009 168.759C58.3337 168.533 58.6588 168.301 58.9771 168.061C59.0765 167.988 59.1827 167.915 59.2821 167.835C65.4944 163.11 70.0543 156.534 72.308 149.051C74.5618 141.567 74.3937 133.561 71.8278 126.18L71.8278 126.18Z" fill="white"/>
<path d="M23.9261 147.012L26.0716 154.46L53.4895 153.976L53.2492 140.328C53.0591 129.525 45.4413 120.208 34.6627 120.398C23.8841 120.589 17.0305 129.721 17.2207 140.524L18.7865 154.589L23.2568 154.51L23.9261 147.012Z" fill="#E4E4E4"/>
<path d="M35.8877 152.22C42.6817 152.22 48.1894 146.7 48.1894 139.891C48.1894 133.082 42.6817 127.562 35.8877 127.562C29.0936 127.562 23.5859 133.082 23.5859 139.891C23.5859 146.7 29.0936 152.22 35.8877 152.22Z" fill="white"/>
<path d="M60.3744 159.118L60.0956 164.304C54.1916 170.459 46.1379 174.081 37.6254 174.412C29.113 174.742 20.8038 171.755 14.4424 166.076C14.1581 165.825 13.8794 165.563 13.6064 165.295C15.3123 163.597 20.0205 159.403 25.246 159.015L48.809 157.528C48.809 157.528 57.736 156.479 60.3744 159.118Z" fill="#E4E4E4"/>
<path d="M49.3543 131.234C49.338 130.29 49.0431 129.372 48.5069 128.595C48.4503 128.516 48.3934 128.441 48.3365 128.367C47.8807 127.784 47.2965 127.315 46.6297 126.996C45.9629 126.676 45.2315 126.516 44.4925 126.527L35.6508 126.686L26.8147 126.84C25.5488 126.866 24.3445 127.392 23.4654 128.306C22.5862 129.219 22.1038 130.444 22.1236 131.713L24.2276 135.958L25.4387 138.397L25.6377 138.283C33.2853 133.975 36.4126 133.918 46.534 137.924L46.7386 138.004L47.5405 135.947L49.3598 131.279L49.3543 131.234Z" fill="#E4E4E4"/>
<path d="M63.165 162.607C62.4542 163.518 61.8126 163.502 61.0108 164.334C58.9868 166.448 55.7567 168.259 53.2321 169.769L52.6807 159.864L60.3738 159.118C60.3738 159.118 62.0961 160.036 63.165 162.607Z" fill="#E4E4E4"/>
<path d="M71.8278 126.18C70.0615 121.095 67.2097 116.456 63.4711 112.589C59.7326 108.722 55.1974 105.718 50.1817 103.788C45.1659 101.858 39.7905 101.048 34.4302 101.414C29.0699 101.78 23.8538 103.313 19.1455 105.907C14.4373 108.501 10.3502 112.093 7.16946 116.433C3.98867 120.772 1.79067 125.755 0.728748 131.033C-0.333177 136.312 -0.233471 141.759 1.02091 146.995C2.2753 152.231 4.65416 157.129 7.99162 161.349C8.32317 161.768 8.668 162.187 9.01962 162.592C9.04617 162.618 9.06592 162.645 9.09246 162.672C9.9568 163.67 10.8755 164.619 11.8442 165.516C12.0965 165.749 12.3616 165.988 12.6268 166.214C13.1306 166.666 13.648 167.098 14.1851 167.51C14.3972 167.676 14.6028 167.842 14.8217 168.002C15.6703 168.646 16.5523 169.244 17.4608 169.816L17.5006 169.836C17.759 169.995 18.0245 170.155 18.2897 170.308C18.7669 170.593 19.2578 170.866 19.7483 171.125L20.0601 171.285C20.7763 171.657 21.5057 172.009 22.255 172.335C22.4075 172.401 22.5732 172.467 22.7257 172.534C22.739 172.541 22.7455 172.541 22.7588 172.547C23.1104 172.693 23.4617 172.833 23.8198 172.966C24.996 173.416 26.1958 173.802 27.4137 174.122C30.5222 174.953 33.7255 175.373 36.9425 175.372C38.1162 175.372 39.2766 175.318 40.4237 175.205C43.0449 174.963 45.6325 174.439 48.1422 173.644C48.1487 173.644 48.1555 173.637 48.162 173.637C49.7474 173.131 51.2961 172.516 52.7972 171.796C52.8036 171.79 52.8169 171.79 52.8237 171.783C53.1617 171.623 53.4868 171.451 53.8184 171.285C53.8715 171.258 53.9242 171.231 53.9773 171.205C54.2425 171.065 54.508 170.926 54.7732 170.779C55.4363 170.414 56.0861 170.028 56.7291 169.616C56.9081 169.51 57.0807 169.397 57.2598 169.277C57.5117 169.111 57.7636 168.939 58.009 168.759C58.3337 168.533 58.6588 168.301 58.9771 168.061C59.0765 167.988 59.1827 167.915 59.2821 167.835C65.4944 163.11 70.0543 156.534 72.308 149.051C74.5618 141.567 74.3937 133.561 71.8278 126.18L71.8278 126.18ZM58.0621 166.22C57.8432 166.393 57.6179 166.559 57.3922 166.712C57.1733 166.878 56.9548 167.038 56.7291 167.184C56.5368 167.324 56.3445 167.457 56.1456 167.583C56.1259 167.596 56.1058 167.609 56.0861 167.623C55.94 167.722 55.7943 167.815 55.6483 167.909C55.0979 168.254 54.5409 168.586 53.9773 168.905C53.9177 168.939 53.8578 168.972 53.7982 169.005C53.5463 169.145 53.2945 169.278 53.0426 169.41C53.0092 169.43 52.9694 169.444 52.9364 169.464L52.8965 169.484C52.5783 169.65 52.2532 169.809 51.9284 169.962C50.6746 170.567 49.3833 171.091 48.0625 171.53C47.89 171.59 47.7177 171.65 47.5455 171.703C45.17 172.46 42.7201 172.96 40.2382 173.192C39.1506 173.292 38.0498 173.345 36.9424 173.345C33.8997 173.351 30.8695 172.953 27.9311 172.162C26.423 171.767 24.945 171.265 23.5083 170.66C23.4351 170.627 23.3555 170.6 23.2826 170.567C23.2033 170.534 23.1301 170.507 23.0573 170.474C22.9776 170.441 22.9048 170.407 22.8251 170.367C22.2018 170.095 21.5851 169.796 20.9819 169.484L20.6901 169.331C19.9539 168.945 19.2312 168.533 18.5283 168.095C18.3227 167.968 18.1106 167.835 17.9115 167.696C17.8587 167.663 17.8121 167.629 17.759 167.596C17.2882 167.284 16.8174 166.958 16.3599 166.619C16.0485 166.387 15.7367 166.154 15.4317 165.915C14.9211 165.529 14.4302 165.117 13.953 164.692C13.7011 164.479 13.4557 164.247 13.217 164.027C12.2768 163.157 11.3868 162.234 10.5514 161.263C10.2729 160.944 10.001 160.625 9.74227 160.292C9.68347 160.227 9.62813 160.158 9.5765 160.086C5.26816 154.638 2.67674 148.026 2.13272 141.096C1.5887 134.165 3.11672 127.229 6.52194 121.172C9.92715 115.115 15.0552 110.212 21.2521 107.088C27.4491 103.963 34.434 102.76 41.3161 103.631C48.1983 104.501 54.6657 107.407 59.8936 111.976C65.1216 116.546 68.873 122.572 70.6696 129.287C72.4662 136.002 72.2265 143.101 69.9811 149.679C67.7356 156.257 63.5863 162.016 58.0621 166.22L58.0621 166.22Z" fill="#E4E4E4"/>
<path d="M73.2754 25.3563C71.4735 20.1684 68.5643 15.437 64.7505 11.4918C60.9366 7.54659 56.31 4.48267 51.1933 2.51367C46.0766 0.54467 40.5929 -0.282013 35.1246 0.0912667C29.6564 0.464547 24.3352 2.0288 19.5321 4.67496C14.729 7.32111 10.5597 10.9855 7.31484 15.4125C4.06999 19.8395 1.82772 24.9227 0.744404 30.3074C-0.33891 35.6922 -0.237198 41.249 1.04245 46.5904C2.3221 51.9317 4.74887 56.929 8.15356 61.2338C8.49178 61.6609 8.84356 62.088 9.20193 62.5015C9.22902 62.5286 9.24916 62.5558 9.27624 62.5829C10.1582 63.6011 11.0955 64.5698 12.0838 65.4846C12.3407 65.7218 12.6113 65.9659 12.8818 66.1964C13.3961 66.6574 13.9235 67.0981 14.4715 67.5184C15.5414 68.3636 16.6569 69.1489 17.8131 69.8709L17.8537 69.8913C18.6045 70.3591 19.3688 70.7929 20.147 71.2065L20.4648 71.3692C21.1954 71.7489 21.9395 72.1082 22.7038 72.4404C22.8594 72.5082 23.0285 72.576 23.1841 72.6438C23.1976 72.6506 23.2046 72.6506 23.2181 72.6573C24.7625 73.301 26.3491 73.8379 27.9668 74.2641C31.1377 75.1112 34.4055 75.5396 37.6871 75.5387C38.8844 75.5387 40.0682 75.4845 41.2385 75.3692C43.9124 75.1218 46.5522 74.5877 49.1125 73.776C49.1194 73.776 49.126 73.7692 49.1326 73.7692C50.75 73.2529 52.3299 72.6254 53.8611 71.8913C53.8677 71.8845 53.8816 71.8845 53.8882 71.8777C54.2331 71.715 54.5647 71.5387 54.9029 71.3693L55.0654 71.2879C55.3359 71.1455 55.6064 71.0031 55.8769 70.854C56.5534 70.4811 57.2163 70.0879 57.8726 69.6676C58.0553 69.5591 58.231 69.4438 58.4136 69.3218C59.0088 68.9286 59.5974 68.5083 60.1655 68.0811C60.2673 68.0066 60.3753 67.932 60.477 67.8507C66.8142 63.0295 71.4658 56.3212 73.7649 48.6875C76.064 41.0537 75.8926 32.8864 73.2754 25.3563V25.3563Z" fill="white"/>
<path d="M50.1223 53.3376C53.2414 53.3376 55.77 50.8034 55.77 47.6773C55.77 44.5512 53.2414 42.0171 50.1223 42.0171C47.0032 42.0171 44.4746 44.5512 44.4746 47.6773C44.4746 50.8034 47.0032 53.3376 50.1223 53.3376Z" fill="#E4E4E4"/>
<path d="M51.6962 42.173C52.6737 42.173 53.6345 42.4273 54.4845 42.9109C55.3346 43.3946 56.0449 44.091 56.546 44.9322C57.047 45.7734 57.3217 46.7305 57.3431 47.7099C57.3645 48.6894 57.1319 49.6576 56.6681 50.52C57.1576 49.906 57.5142 49.1965 57.715 48.4368C57.9158 47.6771 57.9566 46.8838 57.8346 46.1074C57.7126 45.3311 57.4307 44.5887 57.0066 43.9276C56.5826 43.2664 56.0258 42.7011 55.3717 42.2675C54.7177 41.834 53.9807 41.5417 53.2077 41.4094C52.4347 41.2771 51.6427 41.3076 50.8821 41.499C50.1215 41.6903 49.4091 42.0384 48.7901 42.5209C48.1711 43.0035 47.6593 43.61 47.2871 44.3018C47.8151 43.6374 48.4858 43.101 49.2493 42.7324C50.0128 42.3638 50.8494 42.1726 51.6969 42.173H51.6962Z" fill="#E4E4E4"/>
<path d="M39.5691 47.6651C48.7318 47.6651 56.1597 40.2207 56.1597 31.0375C56.1597 21.8544 48.7318 14.4099 39.5691 14.4099C30.4064 14.4099 22.9785 21.8544 22.9785 31.0375C22.9785 40.2207 30.4064 47.6651 39.5691 47.6651Z" fill="#E4E4E4"/>
<path d="M26.5472 20.7211C29.4059 17.4989 33.4019 15.5159 37.6917 15.1906C41.9816 14.8652 46.2298 16.223 49.5397 18.9773C49.4044 18.8479 49.2691 18.7177 49.1291 18.5923C45.8514 15.6524 41.5429 14.1374 37.151 14.3803C32.759 14.6232 28.6431 16.6042 25.7081 19.8878C22.773 23.1713 21.2592 27.4886 21.4994 31.8905C21.7396 36.2924 23.7141 40.4185 26.9888 43.3617C27.0203 43.39 27.0519 43.4181 27.0836 43.4462C27.2243 43.5716 27.3691 43.6902 27.5132 43.8102C24.3962 40.8384 22.5532 36.7691 22.3731 32.4612C22.193 28.1533 23.6899 23.9438 26.5479 20.721L26.5472 20.7211Z" fill="#E4E4E4"/>
<path d="M39.4274 47.5241C45.3287 47.5241 50.1126 42.7295 50.1126 36.8151C50.1126 30.9007 45.3287 26.1061 39.4274 26.1061C33.5261 26.1061 28.7422 30.9007 28.7422 36.8151C28.7422 42.7295 33.5261 47.5241 39.4274 47.5241Z" fill="white"/>
<path d="M58.5485 64.7176V68.3107C57.8922 68.7311 57.2293 69.1243 56.5529 69.4971C56.2823 69.6463 56.0118 69.7887 55.7413 69.9311L55.5788 70.0124C55.2406 70.1819 54.909 70.3582 54.5641 70.5209C54.5575 70.5277 54.5436 70.5277 54.537 70.5344C53.0058 71.2685 51.4259 71.896 49.8085 72.4124C49.8019 72.4124 49.7953 72.4191 49.7883 72.4191C47.2281 73.2309 44.5883 73.765 41.9144 74.0123C40.7441 74.1276 39.5604 74.1818 38.363 74.1818C35.0814 74.1828 31.8136 73.7543 28.6427 72.9072C27.025 72.481 25.4384 71.9442 23.894 71.3005C23.8805 71.2938 23.8735 71.2938 23.86 71.287C23.7044 71.2192 23.5353 71.1513 23.3797 71.0835C22.6154 70.7513 21.8713 70.392 21.1406 70.0124L20.8229 69.8497C20.0447 69.4361 19.2804 69.0022 18.5297 68.5344L18.489 68.5141C17.3328 67.7921 16.2173 67.0067 15.1474 66.1616C14.5994 65.7413 14.0719 65.3006 13.5577 64.8396C13.2872 64.609 13.0167 64.365 12.7597 64.1277C11.7714 63.2129 10.8341 62.2442 9.95215 61.226C10.0691 60.5199 10.2411 59.824 10.4664 59.1447L10.473 59.1379C10.5135 59.0221 10.5609 58.909 10.6151 58.7989C10.6524 58.7016 10.6953 58.6066 10.7435 58.5142C11.9544 56.2431 14.1462 55.6803 16.8656 55.5583C18.4011 55.4905 20.0989 55.5651 21.8917 55.5447C22.8387 55.538 23.8193 55.5041 24.8003 55.4159C30.9898 54.8533 29.8671 51.1923 30.1442 49.2194C30.4217 47.3076 32.1399 48.9618 32.2548 49.0703L32.2614 49.0771C35.764 50.7199 39.6392 51.4007 43.4905 51.0499C44.1534 50.9685 44.8164 50.9211 45.4793 50.9008C47.2246 50.8804 46.8457 51.3821 46.2439 51.7957C45.9517 51.9884 45.6466 52.1605 45.3306 52.3109C45.3306 52.3109 45.0532 54.0058 44.7691 56.5414C44.4986 58.9684 53.0285 59.8091 54.6995 60.3379H54.7061C55.6599 60.6894 56.5109 61.2741 57.1819 62.039C57.853 62.8038 58.3227 63.7246 58.5485 64.7176Z" fill="#E4E4E4"/>
<path d="M30.2891 23.4288V34.1405H32.7635L35.9124 30.7589L35.491 34.1405H46.4292L45.7527 30.7589L47.1056 34.1405H48.8495V23.4288H30.2891Z" fill="#E4E4E4"/>
<path d="M28.6023 36.1107C29.0682 36.1107 29.4459 35.4168 29.4459 34.5609C29.4459 33.7049 29.0682 33.0111 28.6023 33.0111C28.1365 33.0111 27.7588 33.7049 27.7588 34.5609C27.7588 35.4168 28.1365 36.1107 28.6023 36.1107Z" fill="#E4E4E4"/>
<path d="M50.2547 36.1107C50.7205 36.1107 51.0982 35.4168 51.0982 34.5609C51.0982 33.7049 50.7205 33.0111 50.2547 33.0111C49.7888 33.0111 49.4111 33.7049 49.4111 34.5609C49.4111 35.4168 49.7888 36.1107 50.2547 36.1107Z" fill="#E4E4E4"/>
<path d="M73.2754 25.3563C71.4735 20.1684 68.5643 15.437 64.7505 11.4918C60.9366 7.54659 56.31 4.48267 51.1933 2.51367C46.0766 0.54467 40.5929 -0.282013 35.1246 0.0912667C29.6564 0.464547 24.3352 2.0288 19.5321 4.67496C14.729 7.32111 10.5597 10.9855 7.31484 15.4125C4.06999 19.8395 1.82772 24.9227 0.744404 30.3074C-0.33891 35.6922 -0.237198 41.249 1.04245 46.5904C2.3221 51.9317 4.74887 56.929 8.15356 61.2338C8.49178 61.6609 8.84356 62.088 9.20193 62.5015C9.22902 62.5286 9.24916 62.5558 9.27624 62.5829C10.1582 63.6011 11.0955 64.5698 12.0838 65.4846C12.3407 65.7218 12.6113 65.9659 12.8818 66.1964C13.3961 66.6574 13.9235 67.0981 14.4715 67.5184C15.5414 68.3636 16.6569 69.1489 17.8131 69.8709L17.8537 69.8913C18.6045 70.3591 19.3688 70.7929 20.147 71.2065L20.4648 71.3692C21.1954 71.7489 21.9395 72.1082 22.7038 72.4404C22.8594 72.5082 23.0285 72.576 23.1841 72.6438C23.1976 72.6506 23.2046 72.6506 23.2181 72.6573C24.7625 73.301 26.3491 73.8379 27.9668 74.2641C31.1377 75.1112 34.4055 75.5396 37.6871 75.5387C38.8844 75.5387 40.0682 75.4845 41.2385 75.3692C43.9124 75.1218 46.5522 74.5877 49.1125 73.776C49.1194 73.776 49.126 73.7692 49.1326 73.7692C50.75 73.2529 52.3299 72.6254 53.8611 71.8913C53.8677 71.8845 53.8816 71.8845 53.8882 71.8777C54.2331 71.715 54.5647 71.5387 54.9029 71.3693L55.0654 71.2879C55.3359 71.1455 55.6064 71.0031 55.8769 70.854C56.5534 70.4811 57.2163 70.0879 57.8726 69.6676C58.0553 69.5591 58.231 69.4438 58.4136 69.3218C59.0088 68.9286 59.5974 68.5083 60.1655 68.0811C60.2673 68.0066 60.3753 67.932 60.477 67.8507C66.8142 63.0295 71.4658 56.3212 73.7649 48.6875C76.064 41.0537 75.8926 32.8864 73.2754 25.3563V25.3563ZM59.2321 66.2032C59.0088 66.3795 58.7789 66.549 58.5491 66.7049C58.3258 66.8744 58.1025 67.0371 57.8726 67.1862C57.6764 67.3286 57.4802 67.4642 57.2771 67.593C57.108 67.7082 56.9389 67.8167 56.7697 67.9252C56.2086 68.2777 55.6405 68.6167 55.0654 68.9421C55.0043 68.976 54.9435 69.0099 54.8824 69.0438C54.6255 69.1862 54.3685 69.3218 54.1115 69.4574C54.0775 69.4777 54.0369 69.4913 54.0031 69.5116L53.9625 69.532C53.6378 69.7014 53.3066 69.8641 52.9749 70.0201C51.6959 70.6375 50.3786 71.1719 49.0312 71.6201C48.8555 71.6811 48.6794 71.7421 48.5037 71.7964C46.0803 72.5688 43.5812 73.0779 41.0492 73.315C39.9397 73.4167 38.8167 73.4709 37.6871 73.4709C34.5831 73.4773 31.4919 73.0715 28.4943 72.2642C26.9558 71.8617 25.4481 71.3496 23.9824 70.732C23.8268 70.6709 23.6713 70.6032 23.5223 70.5421C23.4414 70.5082 23.3667 70.4743 23.2855 70.4337C22.6496 70.1557 22.0208 69.8506 21.4051 69.532L21.1075 69.376C20.3567 68.9828 19.6192 68.5625 18.9021 68.1151C18.6385 67.9523 18.3746 67.7828 18.1176 67.6066C17.3058 67.071 16.5144 66.4947 15.7431 65.8913C15.2222 65.4981 14.7218 65.0778 14.2346 64.6439C13.9777 64.427 13.7273 64.1896 13.4839 63.9659C12.5248 63.0783 11.6169 62.1367 10.7645 61.1456C10.4805 60.8202 10.203 60.4948 9.93913 60.1558C9.87913 60.0888 9.82268 60.0186 9.77002 59.9456C5.37493 54.3872 2.73132 47.6427 2.17635 40.5723C1.62139 33.5019 3.18021 26.4261 6.654 20.2472C10.1278 14.0683 15.3592 9.06642 21.6809 5.87941C28.0026 2.69241 35.1282 1.46472 42.1489 2.35294C49.1697 3.24115 55.7674 6.205 61.1006 10.8665C66.4338 15.528 70.2608 21.6759 72.0936 28.5261C73.9264 35.3764 73.6818 42.6185 71.3912 49.3288C69.1005 56.0392 64.8675 61.9137 59.2321 66.2032L59.2321 66.2032Z" fill="#E4E4E4"/>
<path d="M83.7619 84.7275L57.232 84.1255C54.5783 73.8228 55.773 64.0132 57.8907 54.9736L84.4205 55.5756C81.737 65.0796 81.5104 75.1116 83.7619 84.7275Z" fill="#0FA9EA"/>
<path d="M62.4355 61.4163L62.4503 60.4046L76.1945 60.8969L76.1802 61.9087L62.4355 61.4163Z" fill="white"/>
<path d="M62.3779 65.463L62.3926 64.4512L76.1369 64.9441L76.1221 65.9559L62.3779 65.463Z" fill="white"/>
<path d="M62.3203 69.5102L62.335 68.4984L76.0792 68.9907L76.0645 70.0025L62.3203 69.5102Z" fill="white"/>
<path d="M62.2627 73.5573L62.2769 72.5455L76.0216 73.0379L76.0069 74.0497L62.2627 73.5573Z" fill="white"/>
<path d="M62.2041 77.604L62.2183 76.5922L75.963 77.0851L75.9483 78.0964L62.2041 77.604Z" fill="white"/>
<path d="M83.7619 180.55L57.232 179.948C54.5783 169.645 55.773 159.836 57.8907 150.796L84.4205 151.398C81.737 160.902 81.5104 170.934 83.7619 180.55Z" fill="#0FA9EA"/>
<path d="M62.4355 157.239L62.4503 156.227L76.1945 156.719L76.1802 157.731L62.4355 157.239Z" fill="white"/>
<path d="M62.3779 161.286L62.3926 160.274L76.1369 160.767L76.1221 161.778L62.3779 161.286Z" fill="white"/>
<path d="M62.3203 165.333L62.335 164.321L76.0792 164.813L76.0645 165.825L62.3203 165.333Z" fill="white"/>
<path d="M62.2627 169.38L62.2769 168.368L76.0216 168.86L76.0069 169.872L62.2627 169.38Z" fill="white"/>
<path d="M62.2041 173.426L62.2183 172.415L75.963 172.908L75.9483 173.919L62.2041 173.426Z" fill="white"/>
<path d="M83.7619 276.373L57.232 275.771C54.5783 265.468 55.773 255.658 57.8907 246.619L84.4205 247.221C81.737 256.725 81.5104 266.757 83.7619 276.373Z" fill="#0FA9EA"/>
<path d="M62.4355 253.061L62.4503 252.05L76.1945 252.542L76.1802 253.554L62.4355 253.061Z" fill="white"/>
<path d="M62.3779 257.108L62.3926 256.096L76.1369 256.589L76.1221 257.601L62.3779 257.108Z" fill="white"/>
<path d="M62.3203 261.155L62.335 260.143L76.0792 260.636L76.0645 261.648L62.3203 261.155Z" fill="white"/>
<path d="M62.2627 265.202L62.2769 264.191L76.0216 264.683L76.0069 265.695L62.2627 265.202Z" fill="white"/>
<path d="M62.2041 269.249L62.2183 268.237L75.963 268.73L75.9483 269.741L62.2041 269.249Z" fill="white"/>
<path d="M225.315 220.83C225.34 220.108 225.522 219.4 225.85 218.757C226.177 218.113 226.642 217.549 227.21 217.105C227.778 216.661 228.437 216.347 229.14 216.185C229.842 216.024 230.571 216.018 231.276 216.17L240.364 201.157L244.263 209.403L235.035 222.395C234.703 223.565 233.954 224.572 232.93 225.225C231.906 225.878 230.679 226.133 229.481 225.94C228.283 225.747 227.197 225.12 226.429 224.178C225.661 223.236 225.265 222.045 225.315 220.83Z" fill="#A0616A"/>
<path d="M257.861 141.595C257.861 141.595 270.751 143.074 265.952 166.803C261.153 190.532 242.499 218.025 242.499 218.025L229.881 211.977L246.34 179.535L242.499 159.191C242.499 159.191 240.305 139.946 257.861 141.595Z" fill="#28AAE1"/>
</g>
<defs>
<clipPath id="clip0">
<rect width="327" height="332" fill="white"/>
</clipPath>
</defs>
</svg>
