<svg width="568" height="322" viewBox="0 0 568 322" fill="none" xmlns="http://www.w3.org/2000/svg">
<g clip-path="url(#clip0)">
<path d="M554.647 271.503C552.594 255.015 542.363 238.769 526.619 233.403C532.828 250.374 532.827 268.992 526.615 285.962C524.196 292.498 520.824 299.516 523.1 306.103C524.515 310.202 527.979 313.338 531.851 315.299C535.723 317.26 540.02 318.194 544.263 319.11L545.098 319.8C551.834 304.608 556.7 287.991 554.647 271.503Z" fill="#F0F0F0"/>
<path d="M526.463 233.715C535.631 243.976 541.33 256.861 542.749 270.54C543.107 273.48 542.999 276.457 542.428 279.363C541.781 282.176 540.391 284.764 538.404 286.859C536.59 288.849 534.504 290.675 533.206 293.071C532.56 294.308 532.183 295.667 532.099 297.059C532.016 298.451 532.228 299.845 532.722 301.15C533.868 304.432 536.126 307.108 538.426 309.647C540.979 312.467 543.676 315.356 544.761 319.094C544.893 319.547 545.589 319.317 545.457 318.865C543.569 312.361 537.247 308.666 534.232 302.808C532.826 300.074 532.235 296.9 533.554 294.015C534.707 291.492 536.857 289.606 538.711 287.607C540.68 285.592 542.125 283.126 542.919 280.424C543.636 277.557 543.859 274.588 543.579 271.646C543.053 265.013 541.487 258.503 538.937 252.355C536.065 245.323 532.011 238.833 526.948 233.166C526.634 232.815 526.151 233.367 526.463 233.715V233.715Z" fill="white"/>
<path d="M542.552 266.109C544.817 265.559 546.813 264.223 548.184 262.34C549.554 260.456 550.21 258.147 550.033 255.825C549.996 255.355 549.263 255.391 549.301 255.862C549.469 258.024 548.858 260.174 547.579 261.926C546.299 263.677 544.434 264.914 542.322 265.413C541.863 265.522 542.095 266.217 542.552 266.109Z" fill="white"/>
<path d="M539.456 285.97C535.365 283.53 532.344 279.639 530.997 275.073C530.864 274.621 530.168 274.851 530.3 275.303C531.711 280.052 534.863 284.094 539.127 286.624C539.533 286.865 539.861 286.21 539.456 285.97Z" fill="white"/>
<path d="M535.385 246.016C534.553 246.411 533.635 246.594 532.715 246.547C531.795 246.5 530.901 246.226 530.113 245.749C529.709 245.503 529.382 246.159 529.783 246.403C530.656 246.926 531.644 247.228 532.66 247.282C533.677 247.336 534.691 247.14 535.615 246.712C535.705 246.679 535.78 246.613 535.823 246.527C535.866 246.441 535.875 246.342 535.848 246.249C535.817 246.157 535.751 246.081 535.664 246.038C535.578 245.994 535.477 245.987 535.385 246.016Z" fill="white"/>
<path d="M478.629 262.853C478.877 263.014 479.124 263.175 479.372 263.342C482.688 265.519 485.821 267.962 488.74 270.647C488.969 270.851 489.198 271.061 489.421 271.271C496.386 277.813 502.074 285.59 506.196 294.207C507.834 297.637 509.207 301.186 510.305 304.825C511.822 309.849 513.065 315.418 516.066 319.528C516.375 319.96 516.71 320.373 517.069 320.764H544.191C544.253 320.733 544.314 320.708 544.376 320.677L545.459 320.727C545.416 320.535 545.367 320.337 545.323 320.146C545.298 320.035 545.267 319.923 545.243 319.812C545.224 319.738 545.205 319.664 545.193 319.596C545.187 319.571 545.181 319.546 545.175 319.528C545.162 319.46 545.144 319.398 545.131 319.336C544.859 318.23 544.578 317.124 544.29 316.017C544.29 316.011 544.29 316.011 544.284 316.005C542.062 307.581 539.117 299.268 535.002 291.666C534.878 291.438 534.754 291.203 534.618 290.974C532.744 287.558 530.594 284.3 528.189 281.234C526.866 279.559 525.46 277.952 523.975 276.419C520.13 272.466 515.686 269.142 510.807 266.568C501.079 261.438 489.817 259.473 479.421 262.606C479.155 262.687 478.895 262.767 478.629 262.853Z" fill="#F0F0F0"/>
<path d="M478.69 263.197C492.196 265.876 504.513 272.738 513.892 282.807C515.95 284.938 517.658 287.381 518.954 290.044C520.133 292.679 520.583 295.581 520.259 298.449C520.011 301.129 519.446 303.841 519.854 306.535C520.084 307.911 520.602 309.222 521.374 310.384C522.147 311.546 523.157 312.531 524.337 313.276C527.231 315.208 530.647 315.986 534.014 316.631C537.752 317.347 541.647 318.032 544.767 320.364C545.145 320.647 545.562 320.045 545.185 319.762C539.756 315.705 532.482 316.556 526.543 313.692C523.772 312.355 521.387 310.176 520.701 307.079C520.101 304.371 520.681 301.573 520.956 298.862C521.313 296.069 520.98 293.231 519.986 290.596C518.83 287.875 517.219 285.371 515.221 283.191C510.803 278.21 505.628 273.954 499.886 270.579C493.354 266.691 486.204 263.947 478.746 262.467C478.285 262.376 478.231 263.106 478.69 263.197H478.69Z" fill="white"/>
<path d="M511.063 279.387C512.541 277.586 513.33 275.319 513.288 272.991C513.247 270.662 512.378 268.425 510.838 266.677C510.525 266.324 509.962 266.794 510.275 267.147C511.713 268.771 512.521 270.856 512.555 273.024C512.589 275.192 511.846 277.301 510.46 278.97C510.16 279.333 510.764 279.748 511.063 279.387Z" fill="white"/>
<path d="M520.565 297.106C515.826 297.619 511.069 296.328 507.241 293.493C506.862 293.212 506.445 293.814 506.823 294.095C510.812 297.038 515.766 298.371 520.696 297.827C521.165 297.775 521.032 297.055 520.565 297.106Z" fill="white"/>
<path d="M493.229 267.654C492.803 268.47 492.18 269.167 491.417 269.683C490.654 270.199 489.775 270.518 488.858 270.611C488.388 270.657 488.522 271.377 488.989 271.331C490.002 271.224 490.972 270.871 491.817 270.302C492.661 269.734 493.353 268.968 493.832 268.071C493.884 267.99 493.904 267.892 493.887 267.798C493.869 267.703 493.817 267.619 493.739 267.561C493.659 267.506 493.561 267.485 493.465 267.503C493.37 267.52 493.285 267.574 493.229 267.654Z" fill="white"/>
<path d="M9.90076 72.929C15.3688 72.929 19.8015 68.5017 19.8015 63.0403C19.8015 57.5789 15.3688 53.1516 9.90076 53.1516C4.43272 53.1516 0 57.5789 0 63.0403C0 68.5017 4.43272 72.929 9.90076 72.929Z" fill="#E4E4E4"/>
<path d="M506.795 72.929C512.263 72.929 516.696 68.5017 516.696 63.0403C516.696 57.5789 512.263 53.1516 506.795 53.1516C501.327 53.1516 496.894 57.5789 496.894 63.0403C496.894 68.5017 501.327 72.929 506.795 72.929Z" fill="#E4E4E4"/>
<path d="M509.889 62.4223H405.239V63.6583H509.889V62.4223Z" fill="#E4E4E4"/>
<path d="M377.7 62.4223H280.992V63.6583H377.7V62.4223Z" fill="#E4E4E4"/>
<path d="M253.454 62.4223H155.927V63.6583H253.454V62.4223Z" fill="#E4E4E4"/>
<path d="M128.505 62.4223H9.90076V63.6583H128.505V62.4223Z" fill="#E4E4E4"/>
<path d="M145.417 80.0365C142.664 80.0365 139.972 79.2209 137.682 77.6929C135.393 76.1649 133.608 73.9931 132.554 71.4521C131.5 68.9111 131.225 66.1151 131.762 63.4176C132.299 60.7201 133.625 58.2423 135.572 56.2975C137.519 54.3527 140 53.0283 142.701 52.4918C145.402 51.9552 148.201 52.2306 150.745 53.2831C153.29 54.3356 155.464 56.118 156.994 58.4048C158.524 60.6916 159.34 63.3802 159.34 66.1305C159.336 69.8173 157.868 73.352 155.258 75.9589C152.648 78.5659 149.109 80.0323 145.417 80.0365Z" fill="#0FA9EA"/>
<path d="M142.323 77.2553C139.509 77.2553 136.757 76.4216 134.416 74.8596C132.076 73.2977 130.252 71.0776 129.174 68.4801C128.097 65.8827 127.815 63.0245 128.365 60.2671C128.914 57.5097 130.269 54.9768 132.26 52.9888C134.25 51.0008 136.786 49.6469 139.547 49.0985C142.308 48.55 145.169 48.8315 147.77 49.9074C150.371 50.9833 152.593 52.8053 154.157 55.1429C155.721 57.4805 156.556 60.2288 156.556 63.0403C156.551 66.809 155.051 70.4222 152.382 73.0871C149.714 75.752 146.097 77.251 142.323 77.2553ZM142.323 50.0614C139.753 50.0614 137.241 50.8226 135.104 52.2487C132.967 53.6749 131.301 55.7019 130.318 58.0735C129.334 60.4451 129.077 63.0547 129.578 65.5724C130.08 68.09 131.317 70.4026 133.135 72.2178C134.952 74.0329 137.268 75.269 139.788 75.7698C142.309 76.2706 144.922 76.0136 147.296 75.0312C149.671 74.0489 151.7 72.3853 153.128 70.251C154.556 68.1166 155.318 65.6073 155.318 63.0403C155.314 59.5993 153.944 56.3003 151.508 53.8671C149.072 51.4339 145.769 50.0653 142.323 50.0614Z" fill="#3F3D56"/>
<path d="M142.014 67.3666C141.768 67.3666 141.532 67.2689 141.358 67.095L136.098 61.8416C136.011 61.7556 135.943 61.6534 135.896 61.5409C135.849 61.4283 135.825 61.3076 135.824 61.1856C135.824 61.0637 135.848 60.943 135.895 60.8303C135.942 60.7176 136.01 60.6152 136.096 60.529C136.183 60.4428 136.285 60.3745 136.398 60.3279C136.511 60.2813 136.632 60.2574 136.754 60.2575C136.876 60.2577 136.997 60.2819 137.109 60.3288C137.222 60.3757 137.324 60.4443 137.411 60.5307L142.014 65.1286L151.168 55.9853C151.342 55.8121 151.578 55.7149 151.824 55.7151C152.07 55.7154 152.306 55.813 152.48 55.9866C152.653 56.1602 152.751 56.3957 152.751 56.6412C152.752 56.8867 152.654 57.1223 152.481 57.2963L142.67 67.095C142.496 67.2689 142.26 67.3666 142.014 67.3666Z" fill="white"/>
<path d="M270.415 80.0365C267.661 80.0365 264.969 79.2209 262.679 77.6929C260.39 76.1649 258.605 73.9931 257.551 71.4521C256.498 68.9111 256.222 66.1151 256.759 63.4176C257.296 60.7201 258.622 58.2423 260.57 56.2975C262.517 54.3527 264.998 53.0283 267.698 52.4918C270.399 51.9552 273.199 52.2306 275.743 53.2831C278.287 54.3356 280.461 56.118 281.991 58.4048C283.521 60.6916 284.337 63.3802 284.337 66.1305C284.333 69.8173 282.865 73.352 280.255 75.9589C277.645 78.5659 274.106 80.0323 270.415 80.0365Z" fill="#0FA9EA"/>
<path d="M267.32 77.2553C264.506 77.2553 261.754 76.4216 259.413 74.8596C257.073 73.2977 255.249 71.0776 254.171 68.4801C253.094 65.8827 252.812 63.0245 253.362 60.2671C253.911 57.5097 255.266 54.9768 257.257 52.9888C259.247 51.0008 261.783 49.6469 264.544 49.0985C267.305 48.55 270.166 48.8315 272.767 49.9074C275.368 50.9833 277.59 52.8053 279.154 55.1429C280.718 57.4805 281.553 60.2288 281.553 63.0403C281.548 66.809 280.048 70.4222 277.379 73.0871C274.711 75.752 271.094 77.251 267.32 77.2553ZM267.32 50.0614C264.75 50.0614 262.238 50.8226 260.101 52.2487C257.964 53.6749 256.298 55.7019 255.315 58.0735C254.331 60.4451 254.074 63.0547 254.575 65.5724C255.077 68.09 256.314 70.4026 258.132 72.2178C259.949 74.0329 262.265 75.269 264.785 75.7698C267.306 76.2706 269.919 76.0136 272.293 75.0312C274.668 74.0489 276.697 72.3853 278.125 70.251C279.553 68.1166 280.315 65.6073 280.315 63.0403C280.311 59.5993 278.941 56.3003 276.505 53.8671C274.069 51.4339 270.766 50.0653 267.32 50.0614Z" fill="#3F3D56"/>
<path d="M267.011 67.3666C266.765 67.3666 266.529 67.2689 266.355 67.095L261.095 61.8416C261.008 61.7556 260.94 61.6534 260.893 61.5409C260.846 61.4283 260.822 61.3076 260.822 61.1857C260.821 61.0637 260.845 60.943 260.892 60.8303C260.939 60.7176 261.007 60.6153 261.093 60.529C261.18 60.4428 261.282 60.3745 261.395 60.3279C261.508 60.2813 261.629 60.2574 261.751 60.2576C261.873 60.2577 261.994 60.2819 262.107 60.3288C262.219 60.3757 262.322 60.4443 262.408 60.5307L267.011 65.1286L276.165 55.9854C276.252 55.899 276.354 55.8305 276.467 55.7837C276.579 55.7368 276.7 55.7127 276.822 55.7126C276.944 55.7124 277.065 55.7364 277.178 55.783C277.29 55.8295 277.393 55.8979 277.479 55.9841C277.566 56.0703 277.634 56.1726 277.681 56.2852C277.727 56.3979 277.751 56.5186 277.751 56.6404C277.751 56.7623 277.727 56.883 277.68 56.9955C277.633 57.1081 277.564 57.2103 277.478 57.2963L267.667 67.095C267.493 67.2689 267.257 67.3666 267.011 67.3666Z" fill="white"/>
<path d="M394.793 80.0365C392.039 80.0365 389.347 79.2209 387.058 77.6929C384.768 76.1649 382.984 73.9931 381.93 71.4521C380.876 68.9111 380.6 66.1151 381.137 63.4176C381.675 60.7201 383.001 58.2423 384.948 56.2975C386.895 54.3527 389.376 53.0283 392.077 52.4918C394.777 51.9552 397.577 52.2306 400.121 53.2831C402.665 54.3356 404.84 56.118 406.369 58.4048C407.899 60.6916 408.716 63.3802 408.716 66.1305C408.712 69.8173 407.243 73.352 404.633 75.9589C402.023 78.5659 398.484 80.0323 394.793 80.0365Z" fill="#F0F0F0"/>
<path d="M391.699 77.2553C388.884 77.2553 386.132 76.4216 383.792 74.8596C381.451 73.2977 379.627 71.0776 378.55 68.4801C377.473 65.8827 377.191 63.0245 377.74 60.2671C378.289 57.5097 379.645 54.9768 381.635 52.9888C383.625 51.0008 386.161 49.6469 388.922 49.0985C391.683 48.55 394.545 48.8315 397.145 49.9074C399.746 50.9833 401.969 52.8053 403.532 55.1429C405.096 57.4805 405.931 60.2288 405.931 63.0403C405.927 66.809 404.426 70.4222 401.758 73.0871C399.09 75.752 395.472 77.251 391.699 77.2553ZM391.699 50.0614C389.129 50.0614 386.616 50.8226 384.479 52.2487C382.342 53.6749 380.677 55.7019 379.693 58.0735C378.71 60.4451 378.452 63.0547 378.954 65.5724C379.455 68.09 380.693 70.4026 382.51 72.2178C384.327 74.0329 386.643 75.269 389.164 75.7698C391.684 76.2706 394.297 76.0136 396.672 75.0312C399.046 74.0489 401.076 72.3853 402.503 70.251C403.931 68.1166 404.693 65.6073 404.693 63.0403C404.69 59.5993 403.319 56.3003 400.883 53.8671C398.447 51.4339 395.144 50.0653 391.699 50.0614Z" fill="#CACACA"/>
<path d="M382.768 135.052C380.014 135.052 377.322 134.236 375.032 132.708C372.743 131.18 370.958 129.009 369.905 126.468C368.851 123.927 368.575 121.131 369.112 118.433C369.649 115.736 370.975 113.258 372.923 111.313C374.87 109.368 377.351 108.044 380.051 107.507C382.752 106.971 385.552 107.246 388.096 108.299C390.64 109.351 392.814 111.133 394.344 113.42C395.874 115.707 396.691 118.396 396.691 121.146C396.686 124.833 395.218 128.367 392.608 130.974C389.998 133.581 386.459 135.048 382.768 135.052Z" fill="#0FA9EA"/>
<path d="M381.839 125.472C381.593 125.472 381.357 125.375 381.183 125.201L375.923 119.947C375.749 119.773 375.651 119.538 375.651 119.292C375.652 119.046 375.749 118.81 375.923 118.636C376.097 118.463 376.334 118.365 376.58 118.365C376.826 118.365 377.062 118.463 377.236 118.636L381.839 123.234L390.994 114.091C391.168 113.918 391.404 113.821 391.65 113.821C391.895 113.821 392.131 113.919 392.305 114.092C392.479 114.266 392.577 114.501 392.577 114.747C392.577 114.992 392.48 115.228 392.306 115.402L382.496 125.201C382.322 125.375 382.086 125.472 381.839 125.472Z" fill="white"/>
<path d="M413.857 314.382L406.361 313.224L407.265 283.791L418.329 285.5L413.857 314.382Z" fill="#9E616A"/>
<path d="M414.646 321.936L390.472 318.202L390.519 317.897C390.905 315.405 392.266 313.167 394.304 311.677C396.341 310.188 398.887 309.567 401.383 309.952L401.384 309.952L416.148 312.233L414.646 321.936Z" fill="#2F2E41"/>
<path d="M492.653 313.64L485.074 313.963L480.222 284.917L491.408 284.441L492.653 313.64Z" fill="#9E616A"/>
<path d="M494.9 320.896L470.46 321.936L470.447 321.627C470.34 319.108 471.239 316.648 472.947 314.791C474.654 312.933 477.031 311.829 479.554 311.721H479.554L494.481 311.086L494.9 320.896Z" fill="#2F2E41"/>
<path d="M477.73 140.477C478.088 140.377 478.454 140.309 478.824 140.274L474.099 101.646L458.067 67.735C457.058 65.6018 456.897 63.1659 457.616 60.9187C458.334 58.6715 459.88 56.7801 461.94 55.6261C464 54.4721 466.422 54.1413 468.716 54.7004C471.011 55.2595 473.008 56.667 474.304 58.6389V58.6389C478.506 65.0289 481.685 72.0343 483.725 79.4026L490.461 103.727L485.536 145.44C485.725 146.616 485.569 147.821 485.089 148.911C484.608 150 483.822 150.928 482.826 151.582C481.83 152.236 480.665 152.589 479.473 152.597C478.281 152.606 477.112 152.27 476.106 151.631C475.1 150.992 474.301 150.076 473.804 148.993C473.307 147.911 473.134 146.708 473.306 145.529C473.478 144.351 473.987 143.247 474.772 142.351C475.556 141.455 476.584 140.804 477.73 140.477Z" fill="#9E616A"/>
<path d="M454.289 67.6634C453.131 64.515 453.25 61.039 454.622 57.9772C455.994 54.9155 458.509 52.5104 461.632 51.2753C464.754 50.0402 468.236 50.0729 471.335 51.3664C474.433 52.6598 476.903 55.1116 478.217 58.1986L488.252 81.7718L467.996 104.915L454.289 67.6634Z" fill="#313334"/>
<path d="M438.727 71.6929L452.341 48.8253C461.745 42.6842 469.482 46.6997 473.606 57.1381C477.2 66.2332 479.99 77.7395 478.33 89.6161C474.614 116.22 471.524 119.282 471.524 119.282C471.524 119.282 494.729 144.931 489.778 177.687L493.491 301.296L482.353 300.678L466.883 229.603L455.126 185.104L434.705 239.491L416.76 302.532L404.384 300.06L411.81 230.221L422.329 149.875L434.396 119.282L428.517 97.9597C428.517 97.9597 421.71 83.1267 438.727 71.6929Z" fill="#313334"/>
<path d="M393.489 104.353C393.739 104.627 393.964 104.924 394.16 105.239L426.649 83.7577L449.86 54.2806C451.32 52.4262 453.43 51.1939 455.764 50.8321C458.098 50.4703 460.483 51.006 462.437 52.3311C464.391 53.6562 465.769 55.6722 466.294 57.9724C466.818 60.2726 466.45 62.6858 465.263 64.7254C461.417 71.3351 456.562 77.3053 450.874 82.4208L432.096 99.3075L392.532 113.544C391.563 114.238 390.414 114.638 389.223 114.695C388.032 114.753 386.85 114.465 385.819 113.867C384.788 113.269 383.952 112.386 383.412 111.325C382.871 110.264 382.649 109.069 382.773 107.885C382.896 106.7 383.36 105.577 384.107 104.649C384.855 103.722 385.855 103.03 386.987 102.657C388.119 102.283 389.335 102.245 390.489 102.546C391.642 102.847 392.684 103.474 393.489 104.353L393.489 104.353Z" fill="#9E616A"/>
<path d="M448.237 50.8734C450.539 48.4314 453.706 46.9849 457.061 46.8426C460.417 46.7002 463.695 47.8733 466.197 50.1115C468.698 52.3497 470.225 55.4757 470.451 58.8224C470.676 62.1691 469.584 65.4715 467.406 68.0248L450.774 87.5238L420.994 79.7654L448.237 50.8734Z" fill="#313334"/>
<path d="M459.291 38.4442C468.205 33.5769 471.482 22.4131 466.608 13.5091C461.735 4.60521 450.558 1.3329 441.643 6.20023C432.728 11.0676 429.452 22.2314 434.325 31.1353C439.198 40.0392 450.376 43.3115 459.291 38.4442Z" fill="#9E616A"/>
<path d="M447.39 3.59888e-10H459.274C467.064 3.59888e-10 473.38 7.09632 473.38 15.8501L472.83 37.0825C464.412 38.1285 456.179 40.3279 448.362 43.6188L447.253 38.888L445.065 45.1184C443.119 46.06 441.19 47.0896 439.277 48.2073C441.51 37.7308 442.429 27.2786 440.896 19.1593H436.871V14.76L435.505 19.1593H428.208V19.1593C428.208 16.6432 428.704 14.1518 429.668 11.8273C430.632 9.5028 432.045 7.39069 433.826 5.61159C435.608 3.83248 437.722 2.42122 440.05 1.45838C442.377 0.495544 444.871 -1.54206e-05 447.39 3.59888e-10Z" fill="#313334"/>
<path d="M567.381 322H331.619C331.455 322 331.298 321.935 331.182 321.819C331.066 321.703 331.001 321.546 331.001 321.382C331.001 321.218 331.066 321.061 331.182 320.945C331.298 320.829 331.455 320.764 331.619 320.764H567.381C567.545 320.764 567.703 320.829 567.819 320.945C567.935 321.061 568 321.218 568 321.382C568 321.546 567.935 321.703 567.819 321.819C567.703 321.935 567.545 322 567.381 322Z" fill="#CACACA"/>
<path d="M142.323 147.094C142.159 147.094 142.002 147.029 141.886 146.913C141.77 146.797 141.705 146.64 141.705 146.476V77.2553C141.705 77.0914 141.77 76.9342 141.886 76.8183C142.002 76.7024 142.159 76.6372 142.323 76.6372C142.488 76.6372 142.645 76.7024 142.761 76.8183C142.877 76.9342 142.942 77.0914 142.942 77.2553V146.476C142.942 146.64 142.877 146.797 142.761 146.913C142.645 147.029 142.487 147.094 142.323 147.094Z" fill="#3F3D56"/>
<path d="M98.6757 157.836C97.6343 157.836 96.6355 158.249 95.8991 158.984C95.1627 159.72 94.749 160.717 94.749 161.758C94.749 162.798 95.1627 163.795 95.8991 164.531C96.6355 165.266 97.6343 165.679 98.6757 165.679H185.988C187.028 165.678 188.025 165.264 188.76 164.528C189.495 163.793 189.907 162.796 189.907 161.758C189.907 160.719 189.495 159.722 188.76 158.987C188.025 158.251 187.028 157.837 185.988 157.836H98.6757Z" fill="#E4E4E4"/>
<path d="M122.087 176.423C121.572 176.422 121.061 176.522 120.584 176.718C120.107 176.914 119.674 177.202 119.308 177.565C118.943 177.929 118.653 178.361 118.454 178.836C118.256 179.311 118.153 179.821 118.152 180.336C118.151 180.851 118.252 181.361 118.448 181.838C118.644 182.314 118.933 182.747 119.297 183.112C119.66 183.477 120.093 183.767 120.569 183.965C121.045 184.163 121.555 184.265 122.071 184.266H162.576C163.618 184.266 164.616 183.853 165.353 183.118C166.089 182.382 166.503 181.385 166.503 180.345C166.503 179.304 166.089 178.307 165.353 177.571C164.616 176.836 163.618 176.423 162.576 176.423H122.087Z" fill="#E4E4E4"/>
<path d="M225.529 157.836C224.488 157.836 223.489 158.249 222.753 158.984C222.016 159.72 221.603 160.717 221.603 161.758C221.603 162.798 222.016 163.795 222.753 164.531C223.489 165.266 224.488 165.679 225.529 165.679H312.841C313.881 165.678 314.878 165.264 315.613 164.528C316.348 163.793 316.761 162.796 316.761 161.758C316.761 160.719 316.348 159.722 315.613 158.987C314.878 158.251 313.881 157.837 312.841 157.836H225.529Z" fill="#E4E4E4"/>
<path d="M248.941 176.423C248.425 176.422 247.914 176.522 247.438 176.718C246.961 176.914 246.527 177.202 246.162 177.565C245.796 177.929 245.506 178.361 245.308 178.836C245.11 179.311 245.007 179.821 245.006 180.336C245.005 180.851 245.105 181.361 245.302 181.838C245.498 182.314 245.786 182.747 246.15 183.112C246.514 183.477 246.946 183.767 247.422 183.965C247.898 184.163 248.409 184.265 248.924 184.266H289.43C290.471 184.266 291.47 183.853 292.206 183.118C292.943 182.382 293.356 181.385 293.356 180.345C293.356 179.304 292.943 178.307 292.206 177.571C291.47 176.836 290.471 176.423 289.43 176.423H248.941Z" fill="#E4E4E4"/>
<path d="M269.177 147.094C269.013 147.094 268.855 147.029 268.739 146.913C268.623 146.797 268.558 146.64 268.558 146.476V77.2553C268.558 77.0914 268.623 76.9342 268.739 76.8183C268.855 76.7024 269.013 76.6372 269.177 76.6372C269.341 76.6372 269.498 76.7024 269.614 76.8183C269.73 76.9342 269.796 77.0914 269.796 77.2553V146.476C269.796 146.64 269.73 146.797 269.614 146.913C269.498 147.029 269.341 147.094 269.177 147.094Z" fill="#3F3D56"/>
</g>
<defs>
<clipPath id="clip0">
<rect width="568" height="322" fill="white"/>
</clipPath>
</defs>
</svg>
