<svg width="422" height="322" viewBox="0 0 422 322" fill="none" xmlns="http://www.w3.org/2000/svg">
<path d="M60.2799 190.134C75.0483 190.134 87.0205 178.16 87.0205 163.39C87.0205 148.619 75.0483 136.645 60.2799 136.645C45.5115 136.645 33.5393 148.619 33.5393 163.39C33.5393 178.16 45.5115 190.134 60.2799 190.134Z" fill="#0FA9EA"/>
<path d="M115.042 314.452H115.014C114.073 314.451 113.17 314.076 112.504 313.41C111.838 312.744 111.464 311.841 111.463 310.9V102.38C111.464 101.438 111.838 100.535 112.504 99.8692C113.17 99.2033 114.073 98.8287 115.014 98.8277H290.5C291.441 98.8287 292.344 99.2033 293.01 99.8692C293.675 100.535 294.05 101.438 294.051 102.38V264.516C294.05 265.452 293.679 266.351 293.019 267.016C292.359 267.681 291.464 268.059 290.527 268.067L115.042 314.452Z" fill="#F2F2F2"/>
<path d="M244.748 69.3674H163.273V22.1474C163.274 21.1503 163.671 20.1944 164.376 19.4893C165.081 18.7843 166.036 18.3877 167.033 18.3865H240.988C241.985 18.3877 242.941 18.7843 243.646 19.4893C244.351 20.1944 244.747 21.1503 244.748 22.1474V69.3674ZM164.109 68.5317H243.913V22.1474C243.912 21.3719 243.603 20.6284 243.055 20.08C242.507 19.5316 241.763 19.2232 240.988 19.2223H167.033C166.258 19.2232 165.515 19.5316 164.966 20.08C164.418 20.6284 164.109 21.3719 164.109 22.1474V68.5317Z" fill="#3F3D56"/>
<path d="M186.462 36.3552H221.559C222.445 36.3552 223.296 36.7074 223.923 37.3344C224.549 37.9613 224.902 38.8116 224.902 39.6982V89.8433H183.119V39.6982C183.119 38.8116 183.472 37.9613 184.098 37.3344C184.725 36.7074 185.575 36.3552 186.462 36.3552Z" fill="#E6E6E6"/>
<path d="M193.356 19.2223H176.225V2.08938C176.226 1.53544 176.446 1.00436 176.838 0.612665C177.23 0.220968 177.761 0.000633731 178.314 0H191.267C191.821 0.000633731 192.352 0.220968 192.743 0.612665C193.135 1.00436 193.355 1.53544 193.356 2.08938V19.2223ZM177.061 18.3865H192.52V2.08938C192.52 1.75701 192.388 1.43835 192.153 1.20333C191.918 0.96831 191.599 0.836115 191.267 0.835752H178.314C177.982 0.836115 177.664 0.96831 177.429 1.20333C177.194 1.43835 177.061 1.75701 177.061 2.08938V18.3865Z" fill="#3F3D56"/>
<path d="M334.124 271.135C333.958 271.135 333.796 271.135 333.629 271.13C323.293 271.016 313.353 267.131 305.679 260.204C305.395 259.946 305.114 259.684 304.835 259.419L304.706 259.296V179.209L304.745 179.124C305.022 178.538 305.303 177.959 305.583 177.381C314.274 159.735 324.41 150.017 334.124 150.017C348.134 150.017 358.999 169.237 364.228 180.694C371.5 196.625 376.579 216.365 376.579 228.699C376.576 239.873 372.167 250.595 364.31 258.538C356.453 266.482 345.781 271.007 334.609 271.131C334.453 271.135 334.287 271.135 334.124 271.135ZM305.541 258.937C305.773 259.156 306.006 259.372 306.24 259.585C313.765 266.375 323.51 270.184 333.644 270.295C333.814 270.299 333.974 270.294 334.135 270.299C334.287 270.299 334.443 270.299 334.594 270.295C357.287 270.043 375.744 251.383 375.744 228.699C375.744 216.472 370.696 196.874 363.468 181.041C358.322 169.767 347.667 150.853 334.124 150.853C324.745 150.853 314.875 160.405 306.334 177.748C306.069 178.294 305.803 178.841 305.541 179.396L305.541 258.937Z" fill="#3F3D56"/>
<path d="M334.123 321.801C333.995 321.801 333.873 321.751 333.783 321.66C333.693 321.57 333.642 321.448 333.642 321.321V223.175C333.641 223.111 333.654 223.049 333.678 222.99C333.702 222.931 333.737 222.878 333.782 222.833C333.826 222.788 333.879 222.752 333.938 222.728C333.996 222.704 334.059 222.691 334.123 222.691C334.186 222.691 334.249 222.704 334.307 222.728C334.366 222.752 334.419 222.788 334.463 222.833C334.508 222.878 334.544 222.931 334.568 222.99C334.591 223.049 334.604 223.111 334.603 223.175V321.321C334.603 321.448 334.553 321.57 334.462 321.66C334.372 321.751 334.25 321.801 334.123 321.801Z" fill="#CCCCCC"/>
<path d="M84.6829 321.801C84.5554 321.801 84.4331 321.751 84.343 321.66C84.2528 321.57 84.2022 321.448 84.2022 321.321V223.175C84.2018 223.111 84.2139 223.049 84.2379 222.99C84.2619 222.931 84.2973 222.878 84.3419 222.833C84.3866 222.788 84.4397 222.752 84.4982 222.728C84.5568 222.704 84.6195 222.691 84.6829 222.691C84.7462 222.691 84.809 222.704 84.8675 222.728C84.926 222.752 84.9791 222.788 85.0238 222.833C85.0684 222.878 85.1038 222.931 85.1278 222.99C85.1518 223.049 85.1639 223.111 85.1636 223.175V321.321C85.1636 321.448 85.1129 321.57 85.0228 321.66C84.9326 321.751 84.8104 321.801 84.6829 321.801Z" fill="#CCCCCC"/>
<path d="M334.123 241.512C334.054 241.512 333.986 241.497 333.923 241.469C333.86 241.44 333.804 241.398 333.759 241.346L309.582 213.461C309.499 213.365 309.458 213.239 309.467 213.112C309.476 212.985 309.535 212.867 309.631 212.783C309.728 212.7 309.853 212.658 309.98 212.667C310.107 212.676 310.225 212.735 310.309 212.831L334.486 240.716C334.546 240.786 334.585 240.871 334.598 240.962C334.611 241.054 334.598 241.147 334.56 241.23C334.522 241.314 334.46 241.385 334.382 241.435C334.305 241.485 334.215 241.512 334.123 241.512V241.512Z" fill="#CCCCCC"/>
<path d="M334.123 257.605C334.027 257.605 333.935 257.576 333.855 257.524C333.776 257.471 333.715 257.396 333.678 257.308C333.642 257.22 333.633 257.123 333.651 257.03C333.67 256.937 333.715 256.851 333.783 256.784L347.52 243.044C347.61 242.955 347.733 242.904 347.86 242.904C347.987 242.905 348.109 242.955 348.199 243.045C348.289 243.135 348.34 243.257 348.34 243.384C348.34 243.512 348.29 243.634 348.2 243.724L334.462 257.464C334.418 257.509 334.365 257.544 334.307 257.568C334.248 257.592 334.186 257.605 334.123 257.605Z" fill="#CCCCCC"/>
<path d="M378.598 322H342.664V321.582C342.662 319.222 343.126 316.884 344.029 314.703C344.931 312.522 346.255 310.54 347.923 308.87C349.592 307.2 351.573 305.876 353.753 304.972C355.934 304.069 358.271 303.604 360.631 303.604C362.991 303.604 365.328 304.069 367.509 304.972C369.689 305.876 371.67 307.2 373.339 308.87C375.007 310.54 376.331 312.522 377.233 314.703C378.136 316.884 378.6 319.222 378.598 321.582L378.598 322ZM343.504 321.164H377.758C377.649 316.694 375.796 312.443 372.596 309.32C369.396 306.196 365.102 304.448 360.631 304.448C356.16 304.448 351.866 306.196 348.666 309.32C345.466 312.443 343.613 316.694 343.504 321.164H343.504Z" fill="#3F3D56"/>
<path d="M360.631 311.383C360.505 311.383 360.384 311.433 360.295 311.522C360.206 311.611 360.157 311.732 360.157 311.857V316.897L355.248 312.683C355.201 312.643 355.146 312.612 355.087 312.592C355.028 312.572 354.965 312.565 354.903 312.569C354.841 312.574 354.78 312.591 354.724 312.619C354.669 312.647 354.619 312.686 354.578 312.734C354.538 312.781 354.507 312.836 354.487 312.895C354.468 312.954 354.46 313.017 354.465 313.079C354.47 313.141 354.487 313.202 354.515 313.258C354.544 313.313 354.583 313.363 354.63 313.403L360.157 318.147V321.108C360.156 321.17 360.168 321.232 360.192 321.29C360.216 321.347 360.251 321.4 360.295 321.444C360.339 321.488 360.391 321.523 360.449 321.547C360.507 321.571 360.568 321.583 360.631 321.583C360.693 321.583 360.755 321.571 360.813 321.547C360.87 321.523 360.923 321.488 360.967 321.444C361.011 321.4 361.046 321.347 361.069 321.29C361.093 321.232 361.105 321.17 361.105 321.108V311.857C361.105 311.732 361.055 311.611 360.966 311.522C360.877 311.433 360.757 311.383 360.631 311.383Z" fill="#3F3D56"/>
<path d="M77.3489 322H41.4141V321.582C41.4129 319.222 41.8768 316.884 42.7793 314.703C43.6817 312.522 45.005 310.54 46.6735 308.87C48.3421 307.2 50.3232 305.876 52.5036 304.972C54.6841 304.069 57.0212 303.604 59.3815 303.604C61.7417 303.604 64.0788 304.069 66.2593 304.972C68.4398 305.876 70.4209 307.2 72.0894 308.87C73.758 310.54 75.0812 312.522 75.9837 314.703C76.8861 316.884 77.35 319.222 77.3489 321.582L77.3489 322ZM42.2547 321.164H76.5082C76.3992 316.694 74.5469 312.443 71.3469 309.32C68.1469 306.196 63.8528 304.448 59.3815 304.448C54.9102 304.448 50.6161 306.196 47.416 309.32C44.216 312.443 42.3638 316.694 42.2547 321.164H42.2547Z" fill="#3F3D56"/>
<path d="M59.3813 311.383C59.2555 311.383 59.1348 311.433 59.0459 311.522C58.9569 311.611 58.907 311.732 58.9069 311.857V316.897L53.9986 312.683C53.9513 312.643 53.8965 312.612 53.8373 312.592C53.778 312.572 53.7155 312.565 53.6533 312.569C53.591 312.574 53.5304 312.591 53.4747 312.619C53.419 312.647 53.3694 312.686 53.3288 312.734C53.2882 312.781 53.2573 312.836 53.2379 312.895C53.2185 312.954 53.211 313.017 53.2158 313.079C53.2206 313.141 53.2376 313.202 53.2659 313.258C53.2942 313.313 53.3332 313.363 53.3806 313.403L58.9069 318.147V321.108C58.9068 321.17 58.9189 321.232 58.9426 321.29C58.9664 321.347 59.0013 321.4 59.0454 321.444C59.0894 321.488 59.1418 321.523 59.1994 321.547C59.2571 321.571 59.3189 321.583 59.3813 321.583C59.4437 321.583 59.5055 321.571 59.5631 321.547C59.6208 321.523 59.6731 321.488 59.7172 321.444C59.7612 321.4 59.7962 321.347 59.8199 321.29C59.8437 321.232 59.8558 321.17 59.8556 321.108V311.857C59.8556 311.732 59.8056 311.611 59.7167 311.522C59.6277 311.433 59.5071 311.383 59.3813 311.383Z" fill="#3F3D56"/>
<path d="M85.1027 271.135C84.9361 271.135 84.774 271.135 84.6075 271.13C73.4371 271.004 62.7669 266.479 54.9111 258.536C47.0553 250.592 42.6474 239.872 42.6436 228.699C42.6436 216.365 47.7226 196.624 54.995 180.694C60.2249 169.237 71.0908 150.017 85.1027 150.017C90.8741 150.017 96.6857 153.307 102.376 159.796C102.658 160.116 102.941 160.446 103.22 160.783L103.315 160.899V267.034L103.08 267.148C102.799 267.284 102.513 267.412 102.228 267.536C96.9844 269.857 91.3215 271.08 85.5876 271.131C85.4316 271.135 85.2649 271.135 85.1027 271.135ZM85.1027 150.853C71.5581 150.853 60.9018 169.767 55.7552 181.041C48.5273 196.874 43.4792 216.472 43.4792 228.699C43.4792 251.38 61.9361 270.039 84.6226 270.295C84.7916 270.299 84.9493 270.3 85.1137 270.299C85.2653 270.299 85.4209 270.299 85.5724 270.295C91.1961 270.246 96.7502 269.046 101.893 266.77C102.09 266.685 102.286 266.598 102.48 266.508V161.2C102.238 160.91 101.993 160.626 101.749 160.348C96.2231 154.048 90.6228 150.853 85.1027 150.853Z" fill="#3F3D56"/>
<path d="M85.1009 241.512C85.032 241.512 84.9639 241.497 84.9011 241.469C84.8384 241.44 84.7826 241.398 84.7375 241.346L60.5608 213.461C60.4775 213.365 60.4359 213.239 60.4451 213.112C60.4543 212.985 60.5134 212.867 60.6096 212.783C60.7059 212.7 60.8312 212.658 60.9583 212.667C61.0853 212.676 61.2036 212.735 61.2872 212.831L85.4639 240.716C85.5243 240.786 85.5633 240.871 85.5765 240.962C85.5896 241.054 85.5762 241.147 85.538 241.23C85.4998 241.314 85.4382 241.385 85.3608 241.435C85.2833 241.485 85.1931 241.512 85.1009 241.512V241.512Z" fill="#CCCCCC"/>
<path d="M85.1008 257.605C85.0057 257.605 84.9128 257.576 84.8337 257.524C84.7547 257.471 84.6931 257.396 84.6567 257.308C84.6203 257.22 84.6108 257.123 84.6294 257.03C84.6479 256.937 84.6937 256.851 84.7609 256.784L98.4985 243.044C98.5888 242.955 98.7109 242.904 98.8381 242.904C98.9654 242.905 99.0874 242.955 99.1773 243.045C99.2673 243.135 99.3179 243.257 99.3181 243.384C99.3183 243.512 99.268 243.634 99.1783 243.724L85.4407 257.464C85.3961 257.509 85.3431 257.544 85.2848 257.568C85.2264 257.592 85.1639 257.605 85.1008 257.605Z" fill="#CCCCCC"/>
<path d="M122.853 72.7104L123.162 73.3205C123.299 73.5838 123.371 73.8762 123.371 74.173V90.6791H137.995V74.173C137.995 73.8762 138.066 73.5838 138.203 73.3205L138.513 72.7104H122.853ZM137.159 74.173V89.8433H124.206V74.173C124.207 73.9618 124.181 73.7513 124.131 73.5462H137.234C137.184 73.7513 137.159 73.9618 137.159 74.173ZM141.237 72.7104L141.546 73.3205C141.683 73.5838 141.755 73.8762 141.755 74.173V90.6791H156.379V74.173C156.379 73.8762 156.451 73.5838 156.588 73.3205L156.897 72.7104H141.237ZM155.543 74.173V89.8433H142.591V74.173C142.591 73.9618 142.566 73.7513 142.515 73.5462H155.618C155.568 73.7513 155.543 73.9618 155.543 74.173ZM159.621 72.7104L159.93 73.3205C160.067 73.5838 160.139 73.8762 160.139 74.173V90.6791H174.763V74.173C174.763 73.8762 174.835 73.5838 174.972 73.3205L175.281 72.7104H159.621ZM173.927 74.173V89.8433H160.975V74.173C160.975 73.9618 160.95 73.7513 160.9 73.5462H174.003C173.952 73.7513 173.927 73.9618 173.927 74.173ZM178.005 72.7104L178.314 73.3205C178.451 73.5838 178.523 73.8762 178.523 74.173V90.6791H193.147V74.173C193.147 73.8762 193.219 73.5838 193.356 73.3205L193.665 72.7104H178.005ZM192.311 74.173V89.8433H179.359V74.173C179.359 73.9618 179.334 73.7513 179.284 73.5462H192.387C192.336 73.7513 192.311 73.9618 192.311 74.173ZM196.389 72.7104L196.699 73.3205C196.836 73.5838 196.907 73.8762 196.907 74.173V90.6791H211.531V74.173C211.531 73.8762 211.603 73.5838 211.74 73.3205L212.049 72.7104H196.389ZM210.696 74.173V89.8433H197.743V74.173C197.743 73.9618 197.718 73.7513 197.668 73.5462H210.771C210.721 73.7513 210.695 73.9618 210.696 74.173ZM214.773 72.7104L215.083 73.3205C215.22 73.5838 215.291 73.8762 215.292 74.173V90.6791H229.915V74.173C229.916 73.8762 229.987 73.5838 230.124 73.3205L230.434 72.7104H214.773ZM229.08 74.173V89.8433H216.127V74.173C216.128 73.9618 216.102 73.7513 216.052 73.5462H229.155C229.105 73.7513 229.08 73.9618 229.08 74.173ZM233.158 72.7104L233.467 73.3205C233.604 73.5838 233.676 73.8762 233.676 74.173V90.6791H248.3V74.173C248.3 73.8762 248.371 73.5838 248.508 73.3205L248.818 72.7104H233.158ZM247.464 74.173V89.8433H234.511V74.173C234.512 73.9618 234.486 73.7513 234.436 73.5462H247.539C247.489 73.7513 247.464 73.9618 247.464 74.173ZM251.542 72.7104L251.851 73.3205C251.988 73.5838 252.06 73.8762 252.06 74.173V90.6791H266.684V74.173C266.684 73.8762 266.756 73.5838 266.893 73.3205L267.202 72.7104H251.542ZM265.848 74.173V89.8433H252.896V74.173C252.896 73.9618 252.871 73.7513 252.82 73.5462H265.923C265.873 73.7513 265.848 73.9618 265.848 74.173ZM269.926 72.7104L270.235 73.3205C270.372 73.5838 270.444 73.8762 270.444 74.173V90.6791H285.068V74.173C285.068 73.8762 285.14 73.5838 285.277 73.3205L285.586 72.7104H269.926ZM284.232 74.173V89.8433H271.28V74.173C271.28 73.9618 271.255 73.7513 271.204 73.5462H284.308C284.257 73.7513 284.232 73.9618 284.232 74.173ZM269.926 72.7104L270.235 73.3205C270.372 73.5838 270.444 73.8762 270.444 74.173V90.6791H285.068V74.173C285.068 73.8762 285.14 73.5838 285.277 73.3205L285.586 72.7104H269.926ZM284.232 74.173V89.8433H271.28V74.173C271.28 73.9618 271.255 73.7513 271.204 73.5462H284.308C284.257 73.7513 284.232 73.9618 284.232 74.173ZM251.542 72.7104L251.851 73.3205C251.988 73.5838 252.06 73.8762 252.06 74.173V90.6791H266.684V74.173C266.684 73.8762 266.756 73.5838 266.893 73.3205L267.202 72.7104H251.542ZM265.848 74.173V89.8433H252.896V74.173C252.896 73.9618 252.871 73.7513 252.82 73.5462H265.923C265.873 73.7513 265.848 73.9618 265.848 74.173ZM233.158 72.7104L233.467 73.3205C233.604 73.5838 233.676 73.8762 233.676 74.173V90.6791H248.3V74.173C248.3 73.8762 248.371 73.5838 248.508 73.3205L248.818 72.7104H233.158ZM247.464 74.173V89.8433H234.511V74.173C234.512 73.9618 234.486 73.7513 234.436 73.5462H247.539C247.489 73.7513 247.464 73.9618 247.464 74.173ZM214.773 72.7104L215.083 73.3205C215.22 73.5838 215.291 73.8762 215.292 74.173V90.6791H229.915V74.173C229.916 73.8762 229.987 73.5838 230.124 73.3205L230.434 72.7104H214.773ZM229.08 74.173V89.8433H216.127V74.173C216.128 73.9618 216.102 73.7513 216.052 73.5462H229.155C229.105 73.7513 229.08 73.9618 229.08 74.173ZM196.389 72.7104L196.699 73.3205C196.836 73.5838 196.907 73.8762 196.907 74.173V90.6791H211.531V74.173C211.531 73.8762 211.603 73.5838 211.74 73.3205L212.049 72.7104H196.389ZM210.696 74.173V89.8433H197.743V74.173C197.743 73.9618 197.718 73.7513 197.668 73.5462H210.771C210.721 73.7513 210.695 73.9618 210.696 74.173ZM178.005 72.7104L178.314 73.3205C178.451 73.5838 178.523 73.8762 178.523 74.173V90.6791H193.147V74.173C193.147 73.8762 193.219 73.5838 193.356 73.3205L193.665 72.7104H178.005ZM192.311 74.173V89.8433H179.359V74.173C179.359 73.9618 179.334 73.7513 179.284 73.5462H192.387C192.336 73.7513 192.311 73.9618 192.311 74.173ZM159.621 72.7104L159.93 73.3205C160.067 73.5838 160.139 73.8762 160.139 74.173V90.6791H174.763V74.173C174.763 73.8762 174.835 73.5838 174.972 73.3205L175.281 72.7104H159.621ZM173.927 74.173V89.8433H160.975V74.173C160.975 73.9618 160.95 73.7513 160.9 73.5462H174.003C173.952 73.7513 173.927 73.9618 173.927 74.173ZM141.237 72.7104L141.546 73.3205C141.683 73.5838 141.755 73.8762 141.755 74.173V90.6791H156.379V74.173C156.379 73.8762 156.451 73.5838 156.588 73.3205L156.897 72.7104H141.237ZM155.543 74.173V89.8433H142.591V74.173C142.591 73.9618 142.566 73.7513 142.515 73.5462H155.618C155.568 73.7513 155.543 73.9618 155.543 74.173ZM122.853 72.7104L123.162 73.3205C123.299 73.5838 123.371 73.8762 123.371 74.173V90.6791H137.995V74.173C137.995 73.8762 138.066 73.5838 138.203 73.3205L138.513 72.7104H122.853ZM137.159 74.173V89.8433H124.206V74.173C124.207 73.9618 124.181 73.7513 124.131 73.5462H137.234C137.184 73.7513 137.159 73.9618 137.159 74.173ZM269.926 72.7104L270.235 73.3205C270.372 73.5838 270.444 73.8762 270.444 74.173V90.6791H285.068V74.173C285.068 73.8762 285.14 73.5838 285.277 73.3205L285.586 72.7104H269.926ZM284.232 74.173V89.8433H271.28V74.173C271.28 73.9618 271.255 73.7513 271.204 73.5462H284.308C284.257 73.7513 284.232 73.9618 284.232 74.173ZM251.542 72.7104L251.851 73.3205C251.988 73.5838 252.06 73.8762 252.06 74.173V90.6791H266.684V74.173C266.684 73.8762 266.756 73.5838 266.893 73.3205L267.202 72.7104H251.542ZM265.848 74.173V89.8433H252.896V74.173C252.896 73.9618 252.871 73.7513 252.82 73.5462H265.923C265.873 73.7513 265.848 73.9618 265.848 74.173ZM233.158 72.7104L233.467 73.3205C233.604 73.5838 233.676 73.8762 233.676 74.173V90.6791H248.3V74.173C248.3 73.8762 248.371 73.5838 248.508 73.3205L248.818 72.7104H233.158ZM247.464 74.173V89.8433H234.511V74.173C234.512 73.9618 234.486 73.7513 234.436 73.5462H247.539C247.489 73.7513 247.464 73.9618 247.464 74.173ZM214.773 72.7104L215.083 73.3205C215.22 73.5838 215.291 73.8762 215.292 74.173V90.6791H229.915V74.173C229.916 73.8762 229.987 73.5838 230.124 73.3205L230.434 72.7104H214.773ZM229.08 74.173V89.8433H216.127V74.173C216.128 73.9618 216.102 73.7513 216.052 73.5462H229.155C229.105 73.7513 229.08 73.9618 229.08 74.173ZM196.389 72.7104L196.699 73.3205C196.836 73.5838 196.907 73.8762 196.907 74.173V90.6791H211.531V74.173C211.531 73.8762 211.603 73.5838 211.74 73.3205L212.049 72.7104H196.389ZM210.696 74.173V89.8433H197.743V74.173C197.743 73.9618 197.718 73.7513 197.668 73.5462H210.771C210.721 73.7513 210.695 73.9618 210.696 74.173ZM178.005 72.7104L178.314 73.3205C178.451 73.5838 178.523 73.8762 178.523 74.173V90.6791H193.147V74.173C193.147 73.8762 193.219 73.5838 193.356 73.3205L193.665 72.7104H178.005ZM192.311 74.173V89.8433H179.359V74.173C179.359 73.9618 179.334 73.7513 179.284 73.5462H192.387C192.336 73.7513 192.311 73.9618 192.311 74.173ZM159.621 72.7104L159.93 73.3205C160.067 73.5838 160.139 73.8762 160.139 74.173V90.6791H174.763V74.173C174.763 73.8762 174.835 73.5838 174.972 73.3205L175.281 72.7104H159.621ZM173.927 74.173V89.8433H160.975V74.173C160.975 73.9618 160.95 73.7513 160.9 73.5462H174.003C173.952 73.7513 173.927 73.9618 173.927 74.173ZM141.237 72.7104L141.546 73.3205C141.683 73.5838 141.755 73.8762 141.755 74.173V90.6791H156.379V74.173C156.379 73.8762 156.451 73.5838 156.588 73.3205L156.897 72.7104H141.237ZM155.543 74.173V89.8433H142.591V74.173C142.591 73.9618 142.566 73.7513 142.515 73.5462H155.618C155.568 73.7513 155.543 73.9618 155.543 74.173ZM122.853 72.7104L123.162 73.3205C123.299 73.5838 123.371 73.8762 123.371 74.173V90.6791H137.995V74.173C137.995 73.8762 138.066 73.5838 138.203 73.3205L138.513 72.7104H122.853ZM137.159 74.173V89.8433H124.206V74.173C124.207 73.9618 124.181 73.7513 124.131 73.5462H137.234C137.184 73.7513 137.159 73.9618 137.159 74.173ZM269.926 72.7104L270.235 73.3205C270.372 73.5838 270.444 73.8762 270.444 74.173V90.6791H285.068V74.173C285.068 73.8762 285.14 73.5838 285.277 73.3205L285.586 72.7104H269.926ZM284.232 74.173V89.8433H271.28V74.173C271.28 73.9618 271.255 73.7513 271.204 73.5462H284.308C284.257 73.7513 284.232 73.9618 284.232 74.173ZM251.542 72.7104L251.851 73.3205C251.988 73.5838 252.06 73.8762 252.06 74.173V90.6791H266.684V74.173C266.684 73.8762 266.756 73.5838 266.893 73.3205L267.202 72.7104H251.542ZM265.848 74.173V89.8433H252.896V74.173C252.896 73.9618 252.871 73.7513 252.82 73.5462H265.923C265.873 73.7513 265.848 73.9618 265.848 74.173ZM233.158 72.7104L233.467 73.3205C233.604 73.5838 233.676 73.8762 233.676 74.173V90.6791H248.3V74.173C248.3 73.8762 248.371 73.5838 248.508 73.3205L248.818 72.7104H233.158ZM247.464 74.173V89.8433H234.511V74.173C234.512 73.9618 234.486 73.7513 234.436 73.5462H247.539C247.489 73.7513 247.464 73.9618 247.464 74.173ZM214.773 72.7104L215.083 73.3205C215.22 73.5838 215.291 73.8762 215.292 74.173V90.6791H229.915V74.173C229.916 73.8762 229.987 73.5838 230.124 73.3205L230.434 72.7104H214.773ZM229.08 74.173V89.8433H216.127V74.173C216.128 73.9618 216.102 73.7513 216.052 73.5462H229.155C229.105 73.7513 229.08 73.9618 229.08 74.173ZM196.389 72.7104L196.699 73.3205C196.836 73.5838 196.907 73.8762 196.907 74.173V90.6791H211.531V74.173C211.531 73.8762 211.603 73.5838 211.74 73.3205L212.049 72.7104H196.389ZM210.696 74.173V89.8433H197.743V74.173C197.743 73.9618 197.718 73.7513 197.668 73.5462H210.771C210.721 73.7513 210.695 73.9618 210.696 74.173ZM178.005 72.7104L178.314 73.3205C178.451 73.5838 178.523 73.8762 178.523 74.173V90.6791H193.147V74.173C193.147 73.8762 193.219 73.5838 193.356 73.3205L193.665 72.7104H178.005ZM192.311 74.173V89.8433H179.359V74.173C179.359 73.9618 179.334 73.7513 179.284 73.5462H192.387C192.336 73.7513 192.311 73.9618 192.311 74.173ZM159.621 72.7104L159.93 73.3205C160.067 73.5838 160.139 73.8762 160.139 74.173V90.6791H174.763V74.173C174.763 73.8762 174.835 73.5838 174.972 73.3205L175.281 72.7104H159.621ZM173.927 74.173V89.8433H160.975V74.173C160.975 73.9618 160.95 73.7513 160.9 73.5462H174.003C173.952 73.7513 173.927 73.9618 173.927 74.173ZM141.237 72.7104L141.546 73.3205C141.683 73.5838 141.755 73.8762 141.755 74.173V90.6791H156.379V74.173C156.379 73.8762 156.451 73.5838 156.588 73.3205L156.897 72.7104H141.237ZM155.543 74.173V89.8433H142.591V74.173C142.591 73.9618 142.566 73.7513 142.515 73.5462H155.618C155.568 73.7513 155.543 73.9618 155.543 74.173ZM122.853 72.7104L123.162 73.3205C123.299 73.5838 123.371 73.8762 123.371 74.173V90.6791H137.995V74.173C137.995 73.8762 138.066 73.5838 138.203 73.3205L138.513 72.7104H122.853ZM137.159 74.173V89.8433H124.206V74.173C124.207 73.9618 124.181 73.7513 124.131 73.5462H137.234C137.184 73.7513 137.159 73.9618 137.159 74.173ZM269.926 72.7104L270.235 73.3205C270.372 73.5838 270.444 73.8762 270.444 74.173V90.6791H285.068V74.173C285.068 73.8762 285.14 73.5838 285.277 73.3205L285.586 72.7104H269.926ZM284.232 74.173V89.8433H271.28V74.173C271.28 73.9618 271.255 73.7513 271.204 73.5462H284.308C284.257 73.7513 284.232 73.9618 284.232 74.173ZM251.542 72.7104L251.851 73.3205C251.988 73.5838 252.06 73.8762 252.06 74.173V90.6791H266.684V74.173C266.684 73.8762 266.756 73.5838 266.893 73.3205L267.202 72.7104H251.542ZM265.848 74.173V89.8433H252.896V74.173C252.896 73.9618 252.871 73.7513 252.82 73.5462H265.923C265.873 73.7513 265.848 73.9618 265.848 74.173ZM233.158 72.7104L233.467 73.3205C233.604 73.5838 233.676 73.8762 233.676 74.173V90.6791H248.3V74.173C248.3 73.8762 248.371 73.5838 248.508 73.3205L248.818 72.7104H233.158ZM247.464 74.173V89.8433H234.511V74.173C234.512 73.9618 234.486 73.7513 234.436 73.5462H247.539C247.489 73.7513 247.464 73.9618 247.464 74.173ZM214.773 72.7104L215.083 73.3205C215.22 73.5838 215.291 73.8762 215.292 74.173V90.6791H229.915V74.173C229.916 73.8762 229.987 73.5838 230.124 73.3205L230.434 72.7104H214.773ZM229.08 74.173V89.8433H216.127V74.173C216.128 73.9618 216.102 73.7513 216.052 73.5462H229.155C229.105 73.7513 229.08 73.9618 229.08 74.173ZM196.389 72.7104L196.699 73.3205C196.836 73.5838 196.907 73.8762 196.907 74.173V90.6791H211.531V74.173C211.531 73.8762 211.603 73.5838 211.74 73.3205L212.049 72.7104H196.389ZM210.696 74.173V89.8433H197.743V74.173C197.743 73.9618 197.718 73.7513 197.668 73.5462H210.771C210.721 73.7513 210.695 73.9618 210.696 74.173ZM178.005 72.7104L178.314 73.3205C178.451 73.5838 178.523 73.8762 178.523 74.173V90.6791H193.147V74.173C193.147 73.8762 193.219 73.5838 193.356 73.3205L193.665 72.7104H178.005ZM192.311 74.173V89.8433H179.359V74.173C179.359 73.9618 179.334 73.7513 179.284 73.5462H192.387C192.336 73.7513 192.311 73.9618 192.311 74.173ZM159.621 72.7104L159.93 73.3205C160.067 73.5838 160.139 73.8762 160.139 74.173V90.6791H174.763V74.173C174.763 73.8762 174.835 73.5838 174.972 73.3205L175.281 72.7104H159.621ZM173.927 74.173V89.8433H160.975V74.173C160.975 73.9618 160.95 73.7513 160.9 73.5462H174.003C173.952 73.7513 173.927 73.9618 173.927 74.173ZM141.237 72.7104L141.546 73.3205C141.683 73.5838 141.755 73.8762 141.755 74.173V90.6791H156.379V74.173C156.379 73.8762 156.451 73.5838 156.588 73.3205L156.897 72.7104H141.237ZM155.543 74.173V89.8433H142.591V74.173C142.591 73.9618 142.566 73.7513 142.515 73.5462H155.618C155.568 73.7513 155.543 73.9618 155.543 74.173ZM122.853 72.7104L123.162 73.3205C123.299 73.5838 123.371 73.8762 123.371 74.173V90.6791H137.995V74.173C137.995 73.8762 138.066 73.5838 138.203 73.3205L138.513 72.7104H122.853ZM137.159 74.173V89.8433H124.206V74.173C124.207 73.9618 124.181 73.7513 124.131 73.5462H137.234C137.184 73.7513 137.159 73.9618 137.159 74.173ZM269.926 72.7104L270.235 73.3205C270.372 73.5838 270.444 73.8762 270.444 74.173V90.6791H285.068V74.173C285.068 73.8762 285.14 73.5838 285.277 73.3205L285.586 72.7104H269.926ZM284.232 74.173V89.8433H271.28V74.173C271.28 73.9618 271.255 73.7513 271.204 73.5462H284.308C284.257 73.7513 284.232 73.9618 284.232 74.173ZM251.851 73.3205C251.988 73.5838 252.06 73.8762 252.06 74.173V90.6791H266.684V74.173C266.684 73.8762 266.756 73.5838 266.893 73.3205L267.202 72.7104H251.542L251.851 73.3205ZM265.923 73.5462C265.873 73.7513 265.848 73.9618 265.848 74.173V89.8433H252.896V74.173C252.896 73.9618 252.871 73.7513 252.82 73.5462H265.923ZM233.467 73.3205C233.604 73.5838 233.676 73.8762 233.676 74.173V90.6791H248.3V74.173C248.3 73.8762 248.371 73.5838 248.508 73.3205L248.818 72.7104H233.158L233.467 73.3205ZM247.539 73.5462C247.489 73.7513 247.464 73.9618 247.464 74.173V89.8433H234.511V74.173C234.512 73.9618 234.486 73.7513 234.436 73.5462H247.539ZM215.083 73.3205C215.22 73.5838 215.291 73.8762 215.292 74.173V90.6791H229.915V74.173C229.916 73.8762 229.987 73.5838 230.124 73.3205L230.434 72.7104H214.773L215.083 73.3205ZM229.155 73.5462C229.105 73.7513 229.08 73.9618 229.08 74.173V89.8433H216.127V74.173C216.128 73.9618 216.102 73.7513 216.052 73.5462H229.155ZM196.699 73.3205C196.836 73.5838 196.907 73.8762 196.907 74.173V90.6791H211.531V74.173C211.531 73.8762 211.603 73.5838 211.74 73.3205L212.049 72.7104H196.389L196.699 73.3205ZM210.771 73.5462C210.721 73.7513 210.695 73.9618 210.696 74.173V89.8433H197.743V74.173C197.743 73.9618 197.718 73.7513 197.668 73.5462H210.771ZM178.314 73.3205C178.451 73.5838 178.523 73.8762 178.523 74.173V90.6791H193.147V74.173C193.147 73.8762 193.219 73.5838 193.356 73.3205L193.665 72.7104H178.005L178.314 73.3205ZM192.387 73.5462C192.336 73.7513 192.311 73.9618 192.311 74.173V89.8433H179.359V74.173C179.359 73.9618 179.334 73.7513 179.284 73.5462H192.387ZM159.93 73.3205C160.067 73.5838 160.139 73.8762 160.139 74.173V90.6791H174.763V74.173C174.763 73.8762 174.835 73.5838 174.972 73.3205L175.281 72.7104H159.621L159.93 73.3205ZM174.003 73.5462C173.952 73.7513 173.927 73.9618 173.927 74.173V89.8433H160.975V74.173C160.975 73.9618 160.95 73.7513 160.9 73.5462H174.003ZM141.546 73.3205C141.683 73.5838 141.755 73.8762 141.755 74.173V90.6791H156.379V74.173C156.379 73.8762 156.451 73.5838 156.588 73.3205L156.897 72.7104H141.237L141.546 73.3205ZM155.618 73.5462C155.568 73.7513 155.543 73.9618 155.543 74.173V89.8433H142.591V74.173C142.591 73.9618 142.566 73.7513 142.515 73.5462H155.618ZM123.162 73.3205C123.299 73.5838 123.371 73.8762 123.371 74.173V90.6791H137.995V74.173C137.995 73.8762 138.066 73.5838 138.203 73.3205L138.513 72.7104H122.853L123.162 73.3205ZM137.234 73.5462C137.184 73.7513 137.159 73.9618 137.159 74.173V89.8433H124.206V74.173C124.207 73.9618 124.181 73.7513 124.131 73.5462H137.234ZM270.235 73.3205C270.372 73.5838 270.444 73.8762 270.444 74.173V90.6791H285.068V74.173C285.068 73.8762 285.14 73.5838 285.277 73.3205L285.586 72.7104H269.926L270.235 73.3205ZM284.308 73.5462C284.257 73.7513 284.232 73.9618 284.232 74.173V89.8433H271.28V74.173C271.28 73.9618 271.255 73.7513 271.204 73.5462H284.308ZM251.851 73.3205C251.988 73.5838 252.06 73.8762 252.06 74.173V90.6791H266.684V74.173C266.684 73.8762 266.756 73.5838 266.893 73.3205L267.202 72.7104H251.542L251.851 73.3205ZM265.923 73.5462C265.873 73.7513 265.848 73.9618 265.848 74.173V89.8433H252.896V74.173C252.896 73.9618 252.871 73.7513 252.82 73.5462H265.923ZM233.467 73.3205C233.604 73.5838 233.676 73.8762 233.676 74.173V90.6791H248.3V74.173C248.3 73.8762 248.371 73.5838 248.508 73.3205L248.818 72.7104H233.158L233.467 73.3205ZM247.539 73.5462C247.489 73.7513 247.464 73.9618 247.464 74.173V89.8433H234.511V74.173C234.512 73.9618 234.486 73.7513 234.436 73.5462H247.539ZM215.083 73.3205C215.22 73.5838 215.291 73.8762 215.292 74.173V90.6791H229.915V74.173C229.916 73.8762 229.987 73.5838 230.124 73.3205L230.434 72.7104H214.773L215.083 73.3205ZM229.155 73.5462C229.105 73.7513 229.08 73.9618 229.08 74.173V89.8433H216.127V74.173C216.128 73.9618 216.102 73.7513 216.052 73.5462H229.155ZM196.699 73.3205C196.836 73.5838 196.907 73.8762 196.907 74.173V90.6791H211.531V74.173C211.531 73.8762 211.603 73.5838 211.74 73.3205L212.049 72.7104H196.389L196.699 73.3205ZM210.771 73.5462C210.721 73.7513 210.695 73.9618 210.696 74.173V89.8433H197.743V74.173C197.743 73.9618 197.718 73.7513 197.668 73.5462H210.771ZM178.314 73.3205C178.451 73.5838 178.523 73.8762 178.523 74.173V90.6791H193.147V74.173C193.147 73.8762 193.219 73.5838 193.356 73.3205L193.665 72.7104H178.005L178.314 73.3205ZM192.387 73.5462C192.336 73.7513 192.311 73.9618 192.311 74.173V89.8433H179.359V74.173C179.359 73.9618 179.334 73.7513 179.284 73.5462H192.387ZM159.93 73.3205C160.067 73.5838 160.139 73.8762 160.139 74.173V90.6791H174.763V74.173C174.763 73.8762 174.835 73.5838 174.972 73.3205L175.281 72.7104H159.621L159.93 73.3205ZM174.003 73.5462C173.952 73.7513 173.927 73.9618 173.927 74.173V89.8433H160.975V74.173C160.975 73.9618 160.95 73.7513 160.9 73.5462H174.003ZM141.546 73.3205C141.683 73.5838 141.755 73.8762 141.755 74.173V90.6791H156.379V74.173C156.379 73.8762 156.451 73.5838 156.588 73.3205L156.897 72.7104H141.237L141.546 73.3205ZM155.618 73.5462C155.568 73.7513 155.543 73.9618 155.543 74.173V89.8433H142.591V74.173C142.591 73.9618 142.566 73.7513 142.515 73.5462H155.618ZM123.162 73.3205C123.299 73.5838 123.371 73.8762 123.371 74.173V90.6791H137.995V74.173C137.995 73.8762 138.066 73.5838 138.203 73.3205L138.513 72.7104H122.853L123.162 73.3205ZM137.234 73.5462C137.184 73.7513 137.159 73.9618 137.159 74.173V89.8433H124.206V74.173C124.207 73.9618 124.181 73.7513 124.131 73.5462H137.234ZM301.781 93.1864H296.8C296.526 92.225 295.946 91.3791 295.149 90.7761C294.351 90.1731 293.379 89.8457 292.38 89.8433H289.664V74.173C289.665 73.8366 289.601 73.5032 289.476 73.191C289.949 72.9122 290.318 72.4853 290.524 71.9762C290.731 71.4671 290.765 70.9041 290.62 70.3741C290.475 69.8441 290.159 69.3765 289.722 69.0435C289.285 68.7105 288.751 68.5307 288.202 68.5317H120.237C119.688 68.5307 119.153 68.7105 118.716 69.0435C118.279 69.3765 117.964 69.8441 117.819 70.3741C117.674 70.9041 117.707 71.4671 117.914 71.9762C118.121 72.4853 118.489 72.9122 118.963 73.191C118.838 73.5032 118.774 73.8366 118.775 74.173V89.8433H116.059C115.059 89.8457 114.088 90.1731 113.29 90.7761C112.493 91.3791 111.913 92.225 111.638 93.1864H106.24C105.243 93.1879 104.288 93.5846 103.583 94.2896C102.878 94.9945 102.481 95.9502 102.48 96.9472V317.586C102.482 318.583 102.879 319.538 103.584 320.243C104.288 320.948 105.243 321.344 106.24 321.347H301.781C302.778 321.345 303.733 320.948 304.438 320.243C305.143 319.539 305.54 318.583 305.541 317.586V96.9472C305.54 95.9502 305.143 94.9945 304.438 94.2896C303.733 93.5846 302.778 93.1879 301.781 93.1864ZM304.705 317.586C304.705 318.183 304.521 318.766 304.18 319.256C303.839 319.746 303.356 320.119 302.796 320.327C302.472 320.451 302.128 320.513 301.781 320.511H106.24C105.893 320.513 105.549 320.451 105.225 320.327C104.665 320.119 104.182 319.746 103.841 319.256C103.499 318.766 103.316 318.183 103.315 317.586V96.9472C103.316 96.1717 103.625 95.4282 104.173 94.8798C104.721 94.3314 105.465 94.023 106.24 94.0221H112.307L112.374 93.6878C112.55 92.8395 113.012 92.0774 113.683 91.5296C114.354 90.9817 115.193 90.6814 116.059 90.6791H119.61V74.173C119.611 73.8329 119.703 73.4993 119.878 73.2077L120.137 72.7773L119.665 72.6018C119.296 72.468 118.986 72.2084 118.789 71.8685C118.593 71.5286 118.523 71.1304 118.591 70.7439C118.66 70.3574 118.862 70.0074 119.163 69.7557C119.464 69.5039 119.845 69.3664 120.237 69.3674H288.202C288.594 69.3664 288.974 69.5038 289.275 69.7556C289.576 70.0074 289.779 70.3574 289.847 70.7439C289.916 71.1304 289.846 71.5286 289.649 71.8685C289.453 72.2084 289.143 72.468 288.774 72.6018L288.302 72.7773L288.561 73.2077C288.736 73.4993 288.828 73.8329 288.828 74.173V90.6791H292.38C293.246 90.6814 294.085 90.9817 294.756 91.5295C295.427 92.0774 295.889 92.8395 296.065 93.6878L296.132 94.0221H301.781C302.556 94.023 303.3 94.3314 303.848 94.8798C304.396 95.4282 304.705 96.1717 304.705 96.9472L304.705 317.586ZM122.853 72.7104L123.162 73.3205C123.299 73.5838 123.371 73.8762 123.371 74.173V90.6791H137.995V74.173C137.995 73.8762 138.066 73.5838 138.203 73.3205L138.513 72.7104H122.853ZM137.159 74.173V89.8433H124.206V74.173C124.207 73.9618 124.181 73.7513 124.131 73.5462H137.234C137.184 73.7513 137.159 73.9618 137.159 74.173ZM141.237 72.7104L141.546 73.3205C141.683 73.5838 141.755 73.8762 141.755 74.173V90.6791H156.379V74.173C156.379 73.8762 156.451 73.5838 156.588 73.3205L156.897 72.7104H141.237ZM155.543 74.173V89.8433H142.591V74.173C142.591 73.9618 142.566 73.7513 142.515 73.5462H155.618C155.568 73.7513 155.543 73.9618 155.543 74.173ZM159.621 72.7104L159.93 73.3205C160.067 73.5838 160.139 73.8762 160.139 74.173V90.6791H174.763V74.173C174.763 73.8762 174.835 73.5838 174.972 73.3205L175.281 72.7104H159.621ZM173.927 74.173V89.8433H160.975V74.173C160.975 73.9618 160.95 73.7513 160.9 73.5462H174.003C173.952 73.7513 173.927 73.9618 173.927 74.173ZM178.005 72.7104L178.314 73.3205C178.451 73.5838 178.523 73.8762 178.523 74.173V90.6791H193.147V74.173C193.147 73.8762 193.219 73.5838 193.356 73.3205L193.665 72.7104H178.005ZM192.311 74.173V89.8433H179.359V74.173C179.359 73.9618 179.334 73.7513 179.284 73.5462H192.387C192.336 73.7513 192.311 73.9618 192.311 74.173ZM196.389 72.7104L196.699 73.3205C196.836 73.5838 196.907 73.8762 196.907 74.173V90.6791H211.531V74.173C211.531 73.8762 211.603 73.5838 211.74 73.3205L212.049 72.7104H196.389ZM210.696 74.173V89.8433H197.743V74.173C197.743 73.9618 197.718 73.7513 197.668 73.5462H210.771C210.721 73.7513 210.695 73.9618 210.696 74.173ZM214.773 72.7104L215.083 73.3205C215.22 73.5838 215.291 73.8762 215.292 74.173V90.6791H229.915V74.173C229.916 73.8762 229.987 73.5838 230.124 73.3205L230.434 72.7104H214.773ZM229.08 74.173V89.8433H216.127V74.173C216.128 73.9618 216.102 73.7513 216.052 73.5462H229.155C229.105 73.7513 229.08 73.9618 229.08 74.173ZM233.158 72.7104L233.467 73.3205C233.604 73.5838 233.676 73.8762 233.676 74.173V90.6791H248.3V74.173C248.3 73.8762 248.371 73.5838 248.508 73.3205L248.818 72.7104H233.158ZM247.464 74.173V89.8433H234.511V74.173C234.512 73.9618 234.486 73.7513 234.436 73.5462H247.539C247.489 73.7513 247.464 73.9618 247.464 74.173ZM251.542 72.7104L251.851 73.3205C251.988 73.5838 252.06 73.8762 252.06 74.173V90.6791H266.684V74.173C266.684 73.8762 266.756 73.5838 266.893 73.3205L267.202 72.7104H251.542ZM265.848 74.173V89.8433H252.896V74.173C252.896 73.9618 252.871 73.7513 252.82 73.5462H265.923C265.873 73.7513 265.848 73.9618 265.848 74.173ZM269.926 72.7104L270.235 73.3205C270.372 73.5838 270.444 73.8762 270.444 74.173V90.6791H285.068V74.173C285.068 73.8762 285.14 73.5838 285.277 73.3205L285.586 72.7104H269.926ZM284.232 74.173V89.8433H271.28V74.173C271.28 73.9618 271.255 73.7513 271.204 73.5462H284.308C284.257 73.7513 284.232 73.9618 284.232 74.173ZM122.853 72.7104L123.162 73.3205C123.299 73.5838 123.371 73.8762 123.371 74.173V90.6791H137.995V74.173C137.995 73.8762 138.066 73.5838 138.203 73.3205L138.513 72.7104H122.853ZM137.159 74.173V89.8433H124.206V74.173C124.207 73.9618 124.181 73.7513 124.131 73.5462H137.234C137.184 73.7513 137.159 73.9618 137.159 74.173ZM141.237 72.7104L141.546 73.3205C141.683 73.5838 141.755 73.8762 141.755 74.173V90.6791H156.379V74.173C156.379 73.8762 156.451 73.5838 156.588 73.3205L156.897 72.7104H141.237ZM155.543 74.173V89.8433H142.591V74.173C142.591 73.9618 142.566 73.7513 142.515 73.5462H155.618C155.568 73.7513 155.543 73.9618 155.543 74.173ZM159.621 72.7104L159.93 73.3205C160.067 73.5838 160.139 73.8762 160.139 74.173V90.6791H174.763V74.173C174.763 73.8762 174.835 73.5838 174.972 73.3205L175.281 72.7104H159.621ZM173.927 74.173V89.8433H160.975V74.173C160.975 73.9618 160.95 73.7513 160.9 73.5462H174.003C173.952 73.7513 173.927 73.9618 173.927 74.173ZM178.005 72.7104L178.314 73.3205C178.451 73.5838 178.523 73.8762 178.523 74.173V90.6791H193.147V74.173C193.147 73.8762 193.219 73.5838 193.356 73.3205L193.665 72.7104H178.005ZM192.311 74.173V89.8433H179.359V74.173C179.359 73.9618 179.334 73.7513 179.284 73.5462H192.387C192.336 73.7513 192.311 73.9618 192.311 74.173ZM196.389 72.7104L196.699 73.3205C196.836 73.5838 196.907 73.8762 196.907 74.173V90.6791H211.531V74.173C211.531 73.8762 211.603 73.5838 211.74 73.3205L212.049 72.7104H196.389ZM210.696 74.173V89.8433H197.743V74.173C197.743 73.9618 197.718 73.7513 197.668 73.5462H210.771C210.721 73.7513 210.695 73.9618 210.696 74.173ZM214.773 72.7104L215.083 73.3205C215.22 73.5838 215.291 73.8762 215.292 74.173V90.6791H229.915V74.173C229.916 73.8762 229.987 73.5838 230.124 73.3205L230.434 72.7104H214.773ZM229.08 74.173V89.8433H216.127V74.173C216.128 73.9618 216.102 73.7513 216.052 73.5462H229.155C229.105 73.7513 229.08 73.9618 229.08 74.173ZM233.158 72.7104L233.467 73.3205C233.604 73.5838 233.676 73.8762 233.676 74.173V90.6791H248.3V74.173C248.3 73.8762 248.371 73.5838 248.508 73.3205L248.818 72.7104H233.158ZM247.464 74.173V89.8433H234.511V74.173C234.512 73.9618 234.486 73.7513 234.436 73.5462H247.539C247.489 73.7513 247.464 73.9618 247.464 74.173ZM251.542 72.7104L251.851 73.3205C251.988 73.5838 252.06 73.8762 252.06 74.173V90.6791H266.684V74.173C266.684 73.8762 266.756 73.5838 266.893 73.3205L267.202 72.7104H251.542ZM265.848 74.173V89.8433H252.896V74.173C252.896 73.9618 252.871 73.7513 252.82 73.5462H265.923C265.873 73.7513 265.848 73.9618 265.848 74.173ZM269.926 72.7104L270.235 73.3205C270.372 73.5838 270.444 73.8762 270.444 74.173V90.6791H285.068V74.173C285.068 73.8762 285.14 73.5838 285.277 73.3205L285.586 72.7104H269.926ZM284.232 74.173V89.8433H271.28V74.173C271.28 73.9618 271.255 73.7513 271.204 73.5462H284.308C284.257 73.7513 284.232 73.9618 284.232 74.173ZM122.853 72.7104L123.162 73.3205C123.299 73.5838 123.371 73.8762 123.371 74.173V90.6791H137.995V74.173C137.995 73.8762 138.066 73.5838 138.203 73.3205L138.513 72.7104H122.853ZM137.159 74.173V89.8433H124.206V74.173C124.207 73.9618 124.181 73.7513 124.131 73.5462H137.234C137.184 73.7513 137.159 73.9618 137.159 74.173ZM141.237 72.7104L141.546 73.3205C141.683 73.5838 141.755 73.8762 141.755 74.173V90.6791H156.379V74.173C156.379 73.8762 156.451 73.5838 156.588 73.3205L156.897 72.7104H141.237ZM155.543 74.173V89.8433H142.591V74.173C142.591 73.9618 142.566 73.7513 142.515 73.5462H155.618C155.568 73.7513 155.543 73.9618 155.543 74.173ZM159.621 72.7104L159.93 73.3205C160.067 73.5838 160.139 73.8762 160.139 74.173V90.6791H174.763V74.173C174.763 73.8762 174.835 73.5838 174.972 73.3205L175.281 72.7104H159.621ZM173.927 74.173V89.8433H160.975V74.173C160.975 73.9618 160.95 73.7513 160.9 73.5462H174.003C173.952 73.7513 173.927 73.9618 173.927 74.173ZM178.005 72.7104L178.314 73.3205C178.451 73.5838 178.523 73.8762 178.523 74.173V90.6791H193.147V74.173C193.147 73.8762 193.219 73.5838 193.356 73.3205L193.665 72.7104H178.005ZM192.311 74.173V89.8433H179.359V74.173C179.359 73.9618 179.334 73.7513 179.284 73.5462H192.387C192.336 73.7513 192.311 73.9618 192.311 74.173ZM196.389 72.7104L196.699 73.3205C196.836 73.5838 196.907 73.8762 196.907 74.173V90.6791H211.531V74.173C211.531 73.8762 211.603 73.5838 211.74 73.3205L212.049 72.7104H196.389ZM210.696 74.173V89.8433H197.743V74.173C197.743 73.9618 197.718 73.7513 197.668 73.5462H210.771C210.721 73.7513 210.695 73.9618 210.696 74.173ZM214.773 72.7104L215.083 73.3205C215.22 73.5838 215.291 73.8762 215.292 74.173V90.6791H229.915V74.173C229.916 73.8762 229.987 73.5838 230.124 73.3205L230.434 72.7104H214.773ZM229.08 74.173V89.8433H216.127V74.173C216.128 73.9618 216.102 73.7513 216.052 73.5462H229.155C229.105 73.7513 229.08 73.9618 229.08 74.173ZM233.158 72.7104L233.467 73.3205C233.604 73.5838 233.676 73.8762 233.676 74.173V90.6791H248.3V74.173C248.3 73.8762 248.371 73.5838 248.508 73.3205L248.818 72.7104H233.158ZM247.464 74.173V89.8433H234.511V74.173C234.512 73.9618 234.486 73.7513 234.436 73.5462H247.539C247.489 73.7513 247.464 73.9618 247.464 74.173ZM251.542 72.7104L251.851 73.3205C251.988 73.5838 252.06 73.8762 252.06 74.173V90.6791H266.684V74.173C266.684 73.8762 266.756 73.5838 266.893 73.3205L267.202 72.7104H251.542ZM265.848 74.173V89.8433H252.896V74.173C252.896 73.9618 252.871 73.7513 252.82 73.5462H265.923C265.873 73.7513 265.848 73.9618 265.848 74.173ZM269.926 72.7104L270.235 73.3205C270.372 73.5838 270.444 73.8762 270.444 74.173V90.6791H285.068V74.173C285.068 73.8762 285.14 73.5838 285.277 73.3205L285.586 72.7104H269.926ZM284.232 74.173V89.8433H271.28V74.173C271.28 73.9618 271.255 73.7513 271.204 73.5462H284.308C284.257 73.7513 284.232 73.9618 284.232 74.173ZM122.853 72.7104L123.162 73.3205C123.299 73.5838 123.371 73.8762 123.371 74.173V90.6791H137.995V74.173C137.995 73.8762 138.066 73.5838 138.203 73.3205L138.513 72.7104H122.853ZM137.159 74.173V89.8433H124.206V74.173C124.207 73.9618 124.181 73.7513 124.131 73.5462H137.234C137.184 73.7513 137.159 73.9618 137.159 74.173ZM141.237 72.7104L141.546 73.3205C141.683 73.5838 141.755 73.8762 141.755 74.173V90.6791H156.379V74.173C156.379 73.8762 156.451 73.5838 156.588 73.3205L156.897 72.7104H141.237ZM155.543 74.173V89.8433H142.591V74.173C142.591 73.9618 142.566 73.7513 142.515 73.5462H155.618C155.568 73.7513 155.543 73.9618 155.543 74.173ZM159.621 72.7104L159.93 73.3205C160.067 73.5838 160.139 73.8762 160.139 74.173V90.6791H174.763V74.173C174.763 73.8762 174.835 73.5838 174.972 73.3205L175.281 72.7104H159.621ZM173.927 74.173V89.8433H160.975V74.173C160.975 73.9618 160.95 73.7513 160.9 73.5462H174.003C173.952 73.7513 173.927 73.9618 173.927 74.173ZM178.005 72.7104L178.314 73.3205C178.451 73.5838 178.523 73.8762 178.523 74.173V90.6791H193.147V74.173C193.147 73.8762 193.219 73.5838 193.356 73.3205L193.665 72.7104H178.005ZM192.311 74.173V89.8433H179.359V74.173C179.359 73.9618 179.334 73.7513 179.284 73.5462H192.387C192.336 73.7513 192.311 73.9618 192.311 74.173ZM196.389 72.7104L196.699 73.3205C196.836 73.5838 196.907 73.8762 196.907 74.173V90.6791H211.531V74.173C211.531 73.8762 211.603 73.5838 211.74 73.3205L212.049 72.7104H196.389ZM210.696 74.173V89.8433H197.743V74.173C197.743 73.9618 197.718 73.7513 197.668 73.5462H210.771C210.721 73.7513 210.695 73.9618 210.696 74.173ZM214.773 72.7104L215.083 73.3205C215.22 73.5838 215.291 73.8762 215.292 74.173V90.6791H229.915V74.173C229.916 73.8762 229.987 73.5838 230.124 73.3205L230.434 72.7104H214.773ZM229.08 74.173V89.8433H216.127V74.173C216.128 73.9618 216.102 73.7513 216.052 73.5462H229.155C229.105 73.7513 229.08 73.9618 229.08 74.173ZM233.158 72.7104L233.467 73.3205C233.604 73.5838 233.676 73.8762 233.676 74.173V90.6791H248.3V74.173C248.3 73.8762 248.371 73.5838 248.508 73.3205L248.818 72.7104H233.158ZM247.464 74.173V89.8433H234.511V74.173C234.512 73.9618 234.486 73.7513 234.436 73.5462H247.539C247.489 73.7513 247.464 73.9618 247.464 74.173ZM251.542 72.7104L251.851 73.3205C251.988 73.5838 252.06 73.8762 252.06 74.173V90.6791H266.684V74.173C266.684 73.8762 266.756 73.5838 266.893 73.3205L267.202 72.7104H251.542ZM265.848 74.173V89.8433H252.896V74.173C252.896 73.9618 252.871 73.7513 252.82 73.5462H265.923C265.873 73.7513 265.848 73.9618 265.848 74.173ZM269.926 72.7104L270.235 73.3205C270.372 73.5838 270.444 73.8762 270.444 74.173V90.6791H285.068V74.173C285.068 73.8762 285.14 73.5838 285.277 73.3205L285.586 72.7104H269.926ZM284.232 74.173V89.8433H271.28V74.173C271.28 73.9618 271.255 73.7513 271.204 73.5462H284.308C284.257 73.7513 284.232 73.9618 284.232 74.173Z" fill="#3F3D56"/>
<path d="M172.528 145.839H141.717C141.068 145.838 140.446 145.58 139.987 145.121C139.528 144.662 139.27 144.04 139.269 143.391V126.975C139.27 126.326 139.528 125.704 139.987 125.245C140.446 124.786 141.068 124.528 141.717 124.527H172.528C173.177 124.528 173.8 124.786 174.258 125.245C174.717 125.704 174.975 126.326 174.976 126.975V143.391C174.975 144.04 174.717 144.662 174.258 145.121C173.8 145.58 173.177 145.838 172.528 145.839Z" fill="#0FA9EA"/>
<path d="M219.416 145.839H188.605C187.956 145.838 187.334 145.58 186.875 145.121C186.416 144.662 186.158 144.04 186.157 143.391V126.975C186.158 126.326 186.416 125.704 186.875 125.245C187.334 124.786 187.956 124.528 188.605 124.527H219.416C220.065 124.528 220.687 124.786 221.146 125.245C221.605 125.704 221.863 126.326 221.864 126.975V143.391C221.863 144.04 221.605 144.662 221.146 145.121C220.687 145.58 220.065 145.838 219.416 145.839Z" fill="#0FA9EA"/>
<path d="M266.304 145.839H235.493C234.844 145.838 234.221 145.58 233.763 145.121C233.304 144.662 233.046 144.04 233.045 143.391V126.975C233.046 126.326 233.304 125.704 233.763 125.245C234.221 124.786 234.844 124.528 235.493 124.527H266.304C266.953 124.528 267.575 124.786 268.034 125.245C268.493 125.704 268.751 126.326 268.752 126.975V143.391C268.751 144.04 268.493 144.662 268.034 145.121C267.575 145.58 266.953 145.838 266.304 145.839Z" fill="#0FA9EA"/>
<path d="M172.528 200.581H141.717C141.068 200.58 140.446 200.322 139.987 199.863C139.528 199.404 139.27 198.782 139.269 198.133V181.717C139.27 181.068 139.528 180.446 139.987 179.987C140.446 179.528 141.068 179.27 141.717 179.269H172.528C173.177 179.27 173.8 179.528 174.258 179.987C174.717 180.446 174.975 181.068 174.976 181.717V198.133C174.975 198.782 174.717 199.404 174.258 199.863C173.8 200.322 173.177 200.58 172.528 200.581Z" fill="#0FA9EA"/>
<path d="M219.416 200.581H188.605C187.956 200.58 187.334 200.322 186.875 199.863C186.416 199.404 186.158 198.782 186.157 198.133V181.717C186.158 181.068 186.416 180.446 186.875 179.987C187.334 179.528 187.956 179.27 188.605 179.269H219.416C220.065 179.27 220.687 179.528 221.146 179.987C221.605 180.446 221.863 181.068 221.864 181.717V198.133C221.863 198.782 221.605 199.404 221.146 199.863C220.687 200.322 220.065 200.58 219.416 200.581Z" fill="#0FA9EA"/>
<path d="M266.304 200.581H235.493C234.844 200.58 234.221 200.322 233.763 199.863C233.304 199.404 233.046 198.782 233.045 198.133V181.717C233.046 181.068 233.304 180.446 233.763 179.987C234.221 179.528 234.844 179.27 235.493 179.269H266.304C266.953 179.27 267.575 179.528 268.034 179.987C268.493 180.446 268.751 181.068 268.752 181.717V198.133C268.751 198.782 268.493 199.404 268.034 199.863C267.575 200.322 266.953 200.58 266.304 200.581Z" fill="#0FA9EA"/>
<path d="M172.528 255.322H141.717C141.068 255.322 140.446 255.063 139.987 254.604C139.528 254.146 139.27 253.523 139.269 252.874V236.459C139.27 235.809 139.528 235.187 139.987 234.728C140.446 234.269 141.068 234.011 141.717 234.011H172.528C173.177 234.011 173.8 234.269 174.258 234.728C174.717 235.187 174.975 235.809 174.976 236.459V252.874C174.975 253.523 174.717 254.146 174.258 254.604C173.8 255.063 173.177 255.322 172.528 255.322Z" fill="#0FA9EA"/>
<path d="M219.416 255.322H188.605C187.956 255.322 187.334 255.063 186.875 254.604C186.416 254.146 186.158 253.523 186.157 252.874V236.459C186.158 235.809 186.416 235.187 186.875 234.728C187.334 234.269 187.956 234.011 188.605 234.011H219.416C220.065 234.011 220.687 234.269 221.146 234.728C221.605 235.187 221.863 235.809 221.864 236.459V252.874C221.863 253.523 221.605 254.146 221.146 254.604C220.687 255.063 220.065 255.322 219.416 255.322Z" fill="#0FA9EA"/>
<path d="M266.304 255.322H235.493C234.844 255.322 234.221 255.063 233.763 254.604C233.304 254.146 233.046 253.523 233.045 252.874V236.459C233.046 235.809 233.304 235.187 233.763 234.728C234.221 234.269 234.844 234.011 235.493 234.011H266.304C266.953 234.011 267.575 234.269 268.034 234.728C268.493 235.187 268.751 235.809 268.752 236.459V252.874C268.751 253.523 268.493 254.146 268.034 254.604C267.575 255.063 266.953 255.322 266.304 255.322Z" fill="#0FA9EA"/>
<path d="M167.54 147.945H131.847C130.984 147.944 130.158 147.601 129.548 146.991C128.938 146.381 128.595 145.554 128.594 144.691V125.675C128.595 124.812 128.938 123.985 129.548 123.375C130.158 122.765 130.984 122.422 131.847 122.421H167.54C168.403 122.422 169.23 122.765 169.84 123.375C170.45 123.985 170.793 124.812 170.794 125.675V144.691C170.793 145.554 170.45 146.381 169.84 146.991C169.23 147.601 168.403 147.944 167.54 147.945ZM131.847 123.256C131.206 123.257 130.592 123.512 130.138 123.966C129.685 124.419 129.43 125.034 129.429 125.675V144.691C129.43 145.332 129.685 145.947 130.138 146.4C130.592 146.854 131.206 147.109 131.847 147.109H167.54C168.181 147.109 168.796 146.854 169.249 146.4C169.702 145.947 169.957 145.332 169.958 144.691V125.675C169.957 125.034 169.702 124.419 169.249 123.966C168.796 123.512 168.181 123.257 167.54 123.256H131.847Z" fill="#3F3D56"/>
<path d="M221.857 147.945H186.164C185.301 147.944 184.474 147.601 183.865 146.991C183.255 146.381 182.912 145.554 182.911 144.691V125.675C182.912 124.812 183.255 123.985 183.865 123.375C184.474 122.765 185.301 122.422 186.164 122.421H221.857C222.72 122.422 223.547 122.765 224.157 123.375C224.767 123.985 225.11 124.812 225.111 125.675V144.691C225.11 145.554 224.767 146.381 224.157 146.991C223.547 147.601 222.72 147.944 221.857 147.945ZM186.164 123.256C185.523 123.257 184.908 123.512 184.455 123.966C184.002 124.419 183.747 125.034 183.746 125.675V144.691C183.747 145.332 184.002 145.947 184.455 146.4C184.908 146.854 185.523 147.109 186.164 147.109H221.857C222.498 147.109 223.113 146.854 223.566 146.4C224.019 145.947 224.274 145.332 224.275 144.691V125.675C224.274 125.034 224.019 124.419 223.566 123.966C223.113 123.512 222.498 123.257 221.857 123.256H186.164Z" fill="#3F3D56"/>
<path d="M276.174 147.945H240.481C239.618 147.944 238.791 147.601 238.181 146.991C237.571 146.381 237.228 145.554 237.227 144.691V125.675C237.228 124.812 237.571 123.985 238.181 123.375C238.791 122.765 239.618 122.422 240.481 122.421H276.174C277.037 122.422 277.863 122.765 278.473 123.375C279.083 123.985 279.426 124.812 279.427 125.675V144.691C279.426 145.554 279.083 146.381 278.473 146.991C277.863 147.601 277.037 147.944 276.174 147.945ZM240.481 123.256C239.84 123.257 239.225 123.512 238.772 123.966C238.319 124.419 238.064 125.034 238.063 125.675V144.691C238.064 145.332 238.319 145.947 238.772 146.4C239.225 146.854 239.84 147.109 240.481 147.109H276.174C276.815 147.109 277.43 146.854 277.883 146.4C278.336 145.947 278.591 145.332 278.592 144.691V125.675C278.591 125.034 278.336 124.419 277.883 123.966C277.43 123.512 276.815 123.257 276.174 123.256H240.481Z" fill="#3F3D56"/>
<path d="M167.54 202.687H131.847C130.984 202.686 130.158 202.343 129.548 201.733C128.938 201.123 128.595 200.296 128.594 199.433V180.416C128.595 179.554 128.938 178.727 129.548 178.117C130.158 177.507 130.984 177.163 131.847 177.162H167.54C168.403 177.163 169.23 177.507 169.84 178.117C170.45 178.727 170.793 179.554 170.794 180.416V199.433C170.793 200.296 170.45 201.123 169.84 201.733C169.23 202.343 168.403 202.686 167.54 202.687ZM131.847 177.998C131.206 177.999 130.592 178.254 130.138 178.707C129.685 179.161 129.43 179.775 129.429 180.416V199.433C129.43 200.074 129.685 200.689 130.138 201.142C130.592 201.595 131.206 201.85 131.847 201.851H167.54C168.181 201.85 168.796 201.595 169.249 201.142C169.702 200.689 169.957 200.074 169.958 199.433V180.416C169.957 179.775 169.702 179.161 169.249 178.707C168.796 178.254 168.181 177.999 167.54 177.998H131.847Z" fill="#3F3D56"/>
<path d="M221.857 202.687H186.164C185.301 202.686 184.474 202.343 183.865 201.733C183.255 201.123 182.912 200.296 182.911 199.433V180.416C182.912 179.554 183.255 178.727 183.865 178.117C184.474 177.507 185.301 177.163 186.164 177.162H221.857C222.72 177.163 223.547 177.507 224.157 178.117C224.767 178.727 225.11 179.554 225.111 180.416V199.433C225.11 200.296 224.767 201.123 224.157 201.733C223.547 202.343 222.72 202.686 221.857 202.687ZM186.164 177.998C185.523 177.999 184.908 178.254 184.455 178.707C184.002 179.161 183.747 179.775 183.746 180.416V199.433C183.747 200.074 184.002 200.689 184.455 201.142C184.908 201.595 185.523 201.85 186.164 201.851H221.857C222.498 201.85 223.113 201.595 223.566 201.142C224.019 200.689 224.274 200.074 224.275 199.433V180.416C224.274 179.775 224.019 179.161 223.566 178.707C223.113 178.254 222.498 177.999 221.857 177.998H186.164Z" fill="#3F3D56"/>
<path d="M276.174 202.687H240.481C239.618 202.686 238.791 202.343 238.181 201.733C237.571 201.123 237.228 200.296 237.227 199.433V180.416C237.228 179.554 237.571 178.727 238.181 178.117C238.791 177.507 239.618 177.163 240.481 177.162H276.174C277.037 177.163 277.863 177.507 278.473 178.117C279.083 178.727 279.426 179.554 279.427 180.416V199.433C279.426 200.296 279.083 201.123 278.473 201.733C277.863 202.343 277.037 202.686 276.174 202.687ZM240.481 177.998C239.84 177.999 239.225 178.254 238.772 178.707C238.319 179.161 238.064 179.775 238.063 180.416V199.433C238.064 200.074 238.319 200.689 238.772 201.142C239.225 201.595 239.84 201.85 240.481 201.851H276.174C276.815 201.85 277.43 201.595 277.883 201.142C278.336 200.689 278.591 200.074 278.592 199.433V180.416C278.591 179.775 278.336 179.161 277.883 178.707C277.43 178.254 276.815 177.999 276.174 177.998H240.481Z" fill="#3F3D56"/>
<path d="M167.54 257.429H131.847C130.984 257.428 130.158 257.084 129.548 256.474C128.938 255.864 128.595 255.037 128.594 254.175V235.158C128.595 234.295 128.938 233.468 129.548 232.858C130.158 232.248 130.984 231.905 131.847 231.904H167.54C168.403 231.905 169.23 232.248 169.84 232.858C170.45 233.468 170.793 234.295 170.794 235.158V254.175C170.793 255.037 170.45 255.864 169.84 256.474C169.23 257.084 168.403 257.428 167.54 257.429ZM131.847 232.74C131.206 232.741 130.592 232.996 130.138 233.449C129.685 233.902 129.43 234.517 129.429 235.158V254.175C129.43 254.816 129.685 255.43 130.138 255.884C130.592 256.337 131.206 256.592 131.847 256.593H167.54C168.181 256.592 168.796 256.337 169.249 255.884C169.702 255.43 169.957 254.816 169.958 254.175V235.158C169.957 234.517 169.702 233.902 169.249 233.449C168.796 232.996 168.181 232.741 167.54 232.74H131.847Z" fill="#3F3D56"/>
<path d="M221.857 257.429H186.164C185.301 257.428 184.474 257.084 183.865 256.474C183.255 255.864 182.912 255.037 182.911 254.175V235.158C182.912 234.295 183.255 233.468 183.865 232.858C184.474 232.248 185.301 231.905 186.164 231.904H221.857C222.72 231.905 223.547 232.248 224.157 232.858C224.767 233.468 225.11 234.295 225.111 235.158V254.175C225.11 255.037 224.767 255.864 224.157 256.474C223.547 257.084 222.72 257.428 221.857 257.429ZM186.164 232.74C185.523 232.741 184.908 232.996 184.455 233.449C184.002 233.902 183.747 234.517 183.746 235.158V254.175C183.747 254.816 184.002 255.43 184.455 255.884C184.908 256.337 185.523 256.592 186.164 256.593H221.857C222.498 256.592 223.113 256.337 223.566 255.884C224.019 255.43 224.274 254.816 224.275 254.175V235.158C224.274 234.517 224.019 233.902 223.566 233.449C223.113 232.996 222.498 232.741 221.857 232.74H186.164Z" fill="#3F3D56"/>
<path d="M276.174 257.429H240.481C239.618 257.428 238.791 257.084 238.181 256.474C237.571 255.864 237.228 255.037 237.227 254.175V235.158C237.228 234.295 237.571 233.468 238.181 232.858C238.791 232.248 239.618 231.905 240.481 231.904H276.174C277.037 231.905 277.863 232.248 278.473 232.858C279.083 233.468 279.426 234.295 279.427 235.158V254.175C279.426 255.037 279.083 255.864 278.473 256.474C277.863 257.084 277.037 257.428 276.174 257.429ZM240.481 232.74C239.84 232.741 239.225 232.996 238.772 233.449C238.319 233.902 238.064 234.517 238.063 235.158V254.175C238.064 254.816 238.319 255.43 238.772 255.884C239.225 256.337 239.84 256.592 240.481 256.593H276.174C276.815 256.592 277.43 256.337 277.883 255.884C278.336 255.43 278.591 254.816 278.592 254.175V235.158C278.591 234.517 278.336 233.902 277.883 233.449C277.43 232.996 276.815 232.741 276.174 232.74H240.481Z" fill="#3F3D56"/>
<path d="M421.582 321.973H0.417822C0.307009 321.973 0.200734 321.929 0.122377 321.851C0.0440201 321.773 0 321.666 0 321.556C0 321.445 0.0440201 321.339 0.122377 321.26C0.200734 321.182 0.307009 321.138 0.417822 321.138H421.582C421.693 321.138 421.799 321.182 421.878 321.26C421.956 321.339 422 321.445 422 321.556C422 321.666 421.956 321.773 421.878 321.851C421.799 321.929 421.693 321.973 421.582 321.973Z" fill="#3F3D56"/>
<path d="M225.111 281.527C225.122 280.574 224.754 279.655 224.088 278.972C223.422 278.289 222.513 277.899 221.559 277.888H204.01V321.138H225.111V281.527Z" fill="#3F3D56"/>
<path d="M204.428 320.72H182.493V281.648C182.494 280.596 182.912 279.587 183.657 278.843C184.401 278.098 185.41 277.68 186.462 277.679H204.428V320.72ZM183.328 319.884H203.593V278.514H186.462C185.631 278.515 184.835 278.846 184.247 279.433C183.66 280.021 183.329 280.818 183.328 281.648V319.884Z" fill="#3F3D56"/>
<path d="M185.209 302.124C185.901 302.124 186.462 301.563 186.462 300.871C186.462 300.178 185.901 299.617 185.209 299.617C184.516 299.617 183.955 300.178 183.955 300.871C183.955 301.563 184.516 302.124 185.209 302.124Z" fill="#3F3D56"/>
<path d="M360.463 37H360.333C355.18 37 350.622 39.7307 348.001 43.7601C345.379 39.7307 340.822 37 335.669 37H335.539C331.672 37.0369 327.975 38.6007 325.253 41.3515C322.53 44.1024 321.002 47.818 321 51.6909C321 56.5002 323.103 63.3243 327.205 68.9395C335.019 79.639 348.001 89 348.001 89C348.001 89 360.982 79.6407 368.795 68.9395C372.898 63.3243 375 56.5002 375 51.6909C374.998 47.8183 373.47 44.1029 370.748 41.3521C368.026 38.6013 364.33 37.0374 360.463 37ZM358.61 69.7626C358.023 69.7604 357.45 69.5805 356.967 69.2466C356.484 68.9126 356.113 68.4403 355.903 67.8915H352.823C352.62 67.8902 352.422 67.8255 352.258 67.7065C352.093 67.5874 351.97 67.4199 351.905 67.2274L350.959 64.3722L347.965 74.8504C347.906 75.0521 347.784 75.2294 347.617 75.3557C347.449 75.482 347.245 75.5505 347.035 75.5508H346.975C346.756 75.5402 346.548 75.4547 346.384 75.3087C346.221 75.1627 346.112 74.9649 346.077 74.7484L342.991 56.1613L340.736 67.16C340.684 67.3689 340.564 67.5545 340.394 67.6871C340.225 67.8197 340.016 67.8916 339.801 67.8915H335.461C335.331 67.897 335.202 67.8761 335.08 67.83C334.958 67.784 334.847 67.7137 334.753 67.6235C334.659 67.5333 334.584 67.4249 334.533 67.305C334.482 67.1851 334.455 67.056 334.455 66.9256C334.455 66.7952 334.482 66.6662 334.533 66.5463C334.584 66.4263 334.659 66.318 334.753 66.2278C334.847 66.1375 334.958 66.0673 335.08 66.0212C335.202 65.9752 335.331 65.9543 335.461 65.9598H339.041L342.236 51.1721C342.289 50.9534 342.415 50.7598 342.595 50.6244C342.774 50.4889 342.994 50.42 343.219 50.4294C343.443 50.4387 343.657 50.5259 343.825 50.6759C343.992 50.8259 344.102 51.0294 344.136 51.2516L347.288 70.2123L349.971 60.8374C350.027 60.64 350.145 60.4659 350.308 60.3413C350.471 60.2166 350.67 60.148 350.875 60.1457H350.893C351.096 60.1458 351.294 60.21 351.459 60.3292C351.623 60.4485 351.745 60.6167 351.809 60.8098L353.52 65.965H355.865C356.032 65.4577 356.336 65.0064 356.742 64.6609C357.149 64.3154 357.643 64.0892 358.17 64.0072C358.697 63.9251 359.236 63.9905 359.729 64.196C360.221 64.4016 360.647 64.7393 360.959 65.172C361.272 65.6047 361.459 66.1154 361.5 66.6479C361.542 67.1803 361.435 67.7138 361.192 68.1895C360.95 68.6651 360.581 69.0643 360.126 69.3432C359.671 69.622 359.148 69.7696 358.615 69.7696L358.61 69.7626Z" fill="#0FA9EA"/>
</svg>
