<svg width="110" height="118" viewBox="0 0 110 118" fill="none" xmlns="http://www.w3.org/2000/svg">
<g filter="url(#filter0_d_540:32333)">
<circle cx="55" cy="55" r="35" fill="#FCC79B"/>
<circle cx="53.5" cy="53.5" r="33.5" fill="#FEDBBC"/>
<rect x="31" y="50" width="6" height="6" rx="3" fill="#FFC498"/>
<rect x="71" y="50" width="6" height="6" rx="3" fill="#FFC498"/>
<circle cx="44" cy="43" r="8" fill="white"/>
<circle cx="44" cy="45" r="3" fill="#16191A" fill-opacity="0.7"/>
<circle cx="65" cy="43" r="8" fill="white"/>
<circle cx="65" cy="45" r="3" fill="#16191A" fill-opacity="0.7"/>
<g filter="url(#filter1_i_540:32333)">
<path d="M40 70.4589C40 69.1009 41.1009 68 42.4589 68H55.5646C56.9096 68 58 69.0904 58 70.4354C58 71.7548 56.9475 72.8348 55.6286 72.8695C50.5351 73.0036 47.03 73.0653 42.3454 72.9019C41.0328 72.8561 40 71.7723 40 70.4589Z" fill="#FCC79B"/>
</g>
</g>
<defs>
<filter id="filter0_d_540:32333" x="-4" y="0" width="118" height="118" filterUnits="userSpaceOnUse" color-interpolation-filters="sRGB">
<feFlood flood-opacity="0" result="BackgroundImageFix"/>
<feColorMatrix in="SourceAlpha" type="matrix" values="0 0 0 0 0 0 0 0 0 0 0 0 0 0 0 0 0 0 127 0" result="hardAlpha"/>
<feOffset dy="4"/>
<feGaussianBlur stdDeviation="12"/>
<feColorMatrix type="matrix" values="0 0 0 0 0.996078 0 0 0 0 0.858824 0 0 0 0 0.737255 0 0 0 0.5 0"/>
<feBlend mode="normal" in2="BackgroundImageFix" result="effect1_dropShadow_540:32333"/>
<feBlend mode="normal" in="SourceGraphic" in2="effect1_dropShadow_540:32333" result="shape"/>
</filter>
<filter id="filter1_i_540:32333" x="40" y="68" width="18" height="9" filterUnits="userSpaceOnUse" color-interpolation-filters="sRGB">
<feFlood flood-opacity="0" result="BackgroundImageFix"/>
<feBlend mode="normal" in="SourceGraphic" in2="BackgroundImageFix" result="shape"/>
<feColorMatrix in="SourceAlpha" type="matrix" values="0 0 0 0 0 0 0 0 0 0 0 0 0 0 0 0 0 0 127 0" result="hardAlpha"/>
<feOffset dy="4"/>
<feGaussianBlur stdDeviation="2"/>
<feComposite in2="hardAlpha" operator="arithmetic" k2="-1" k3="1"/>
<feColorMatrix type="matrix" values="0 0 0 0 0 0 0 0 0 0 0 0 0 0 0 0 0 0 0.25 0"/>
<feBlend mode="normal" in2="shape" result="effect1_innerShadow_540:32333"/>
</filter>
</defs>
</svg>
